<svg id="Layer_1" data-name="Layer 1" xmlns="http://www.w3.org/2000/svg" viewBox="0 0 806.4 226.8"><defs><style>.cls-1{fill:#fff;}.cls-2{fill:#b91e2b;}.cls-3{fill:#fab600;}</style></defs><title>Artboard 1</title><path class="cls-1" d="M266.8,143.7H232.3V141h.3c3,0,5.2-.8,6.3-2.4s1.8-4.5,1.8-8.8v-45c0-4.3-.6-7.3-1.7-8.9s-3.2-2.3-6.4-2.3h-.3V70.9h28.3c8.1,0,14.5,1.6,19.2,4.9s7.1,7.7,7.1,13c0,7.7-4.9,13.3-14.5,16.5a24.9,24.9,0,0,1,13.3,7.3,18.89,18.89,0,0,1,5.5,13.2,15.72,15.72,0,0,1-6.7,13.1q-6.75,4.8-17.7,4.8Zm-15.6-36v20.8c0,4.6.5,7.8,1.5,9.4s2.9,2.4,5.8,2.4h6.2a13.78,13.78,0,0,0,10.3-4.1c2.7-2.7,4-6.4,4-11.1a15.66,15.66,0,0,0-5.8-12.7c-3.8-3.2-9-4.8-15.4-4.8h-6.6Zm0-3.5h7.3c5.3,0,9.5-1.3,12.6-4s4.6-6.3,4.6-10.8c0-4.8-1.5-8.5-4.6-11.1s-7.4-4-13-4H251v29.9Z"/><path class="cls-1" d="M388.8,143.7H362V141h.3c4.1,0,6.1-1.3,6.1-4a9.72,9.72,0,0,0-.5-2.7l-6.8-19.8H337.6l-5,14.3c-1.2,3.6-1.9,6.3-1.9,7.8,0,2.8,1.8,4.3,5.5,4.3h.3v2.7H316.7v-2.7h.3c2.7-.4,4.8-1.2,6.2-2.6s3-4.2,4.5-8.6l20.6-59.6.1-.2h8.1l.1.2,21.6,62.2c1.2,3.6,2.5,5.9,3.8,6.9s3.5,1.5,6.4,1.5h.3v3Zm-49.6-34.3h20L349.1,80.2l-9.9,29.2Z"/><path class="cls-1" d="M482,143.2h-2.8l-.1-.1L427,81v49.8c0,3.5.7,6,2.2,7.4s3.9,2.2,7.3,2.2h.3v2.7H413.6v-2.7h.3c3.5,0,5.8-.9,7-2.6s1.8-4.9,1.8-9.4V86.1c0-4.4-.8-7.7-2.5-9.6s-4.4-3.1-8.2-3.4h-.3V70.3h19.6l.1.1,46.1,55.5V84.6c0-4.3-.6-7.4-1.9-9.1s-3.5-2.5-6.9-2.5h-.3V70.3h23V73h-.3c-3.5,0-5.9.8-7.2,2.3s-2,4.5-2,8.7v59.2Z"/><path class="cls-1" d="M564.9,145.5c-13.8,0-24.6-3.3-32.3-9.9S521,120.2,521,109.4a41.56,41.56,0,0,1,5.1-20.5,38.74,38.74,0,0,1,14.2-14.5,38.26,38.26,0,0,1,19.4-5.3A47,47,0,0,1,573,71.2a30.46,30.46,0,0,0,6.9,1.3c2,0,3.2-.7,3.9-2.2l.1-.2h2.8V92H584v-.3a20.84,20.84,0,0,0-8.1-14,26,26,0,0,0-16.2-5.3,23.82,23.82,0,0,0-19.1,9c-5,6-7.5,13.9-7.5,23.4,0,10.5,2.9,19.2,8.6,26.1a26.93,26.93,0,0,0,21.6,10.3c8.2,0,12.1-2.4,12.1-7.4V126c0-4.3-.6-7.4-1.7-9.1s-3.2-2.5-6.1-2.5h-3.2v-2.7h30.7v2.7h-.3c-3.2,0-5.5.7-6.8,2.1s-2,3.8-2,7.3v19.7l-.3.1a54.91,54.91,0,0,1-9.8,1.2,108.52,108.52,0,0,1-11,.7Z"/><path class="cls-1" d="M665.7,145.5c-11.1,0-20.7-3.8-28.3-11.2a36.64,36.64,0,0,1-11.6-27.4,36,36,0,0,1,11.5-27.1C644.9,72.6,654.6,69,666,69c11.1,0,20.6,3.7,28.2,11a35.87,35.87,0,0,1,11.6,26.9,36.64,36.64,0,0,1-11.6,27.4c-7.8,7.5-17.4,11.2-28.5,11.2Zm.5-73c-8.6,0-15.5,3.2-20.6,9.4s-7.8,14.7-7.8,25.1,2.6,19,7.7,25.4a24.4,24.4,0,0,0,20,9.6,24.87,24.87,0,0,0,20.3-9.8c5.2-6.6,7.8-14.8,7.8-24.7,0-10.5-2.6-19.1-7.7-25.5a24,24,0,0,0-19.7-9.5Z"/><path class="cls-1" d="M806.4,143.7H790.6l-.1-.1a155,155,0,0,1-11.4-16.1c-4.7-7.4-8.4-12.1-11-14.2a13.92,13.92,0,0,0-8.7-3h-5.7v19.5q0,6.3,1.8,8.7t6.3,2.4h.3v2.7H734.7v-2.7h.3c3.2,0,5.3-.8,6.4-2.4s1.7-4.6,1.7-8.7V84.6c0-4.2-.6-7.1-1.7-8.6s-3.2-2.3-6.4-2.3h-.3V71h30.9q11.4,0,18.3,5.4a16.91,16.91,0,0,1,6.9,13.8c0,8.8-5,14.8-14.9,17.8a29.92,29.92,0,0,1,6,5.4,105.19,105.19,0,0,1,8.5,12.2c3.9,6.2,6.9,10.4,9.1,12.3a11.19,11.19,0,0,0,6.6,3.1h.3v2.7Zm-52.7-37.1h8.8c5.3,0,9.6-1.5,12.6-4.5a16,16,0,0,0,4.6-11.8,14.76,14.76,0,0,0-5-11.6c-3.4-2.9-7.9-4.4-13.4-4.4h-7.5v32.3Z"/><path class="cls-1" d="M246.9,209.9a11,11,0,0,1-8.1-3,10.48,10.48,0,0,1-2.9-7.8v-15c0-1.8-.2-3-.7-3.6s-1.3-.9-2.6-.9h-.3v-1.5h12v1.5H244c-1.3,0-2.2.3-2.6.9s-.7,1.9-.7,3.6v15.5a8.07,8.07,0,0,0,2,5.7,7.7,7.7,0,0,0,5.7,2.1,10,10,0,0,0,8.7-4.9V184.2a6.5,6.5,0,0,0-.7-3.6,2.73,2.73,0,0,0-2.4-1h-.3v-1.5h11.7v1.5h-.3a3,3,0,0,0-2.6,1,6.5,6.5,0,0,0-.7,3.6v19.1a6.5,6.5,0,0,0,.7,3.6,3.16,3.16,0,0,0,2.6,1h.3v1.5H257v-3.9a14,14,0,0,1-10.1,4.4Z"/><path class="cls-1" d="M310.4,209.1H309l-.1-.1-21.8-26v20.7a4.42,4.42,0,0,0,.9,3.1,4.14,4.14,0,0,0,3,.9h.3v1.5H281.1v-1.5h.3a3.72,3.72,0,0,0,2.9-1,7.08,7.08,0,0,0,.8-3.9V184.9c0-1.9-.3-3.2-1-4a4.68,4.68,0,0,0-3.4-1.4h-.3V178h8.5l.1.1,19.3,23.2V184.2a6.92,6.92,0,0,0-.8-3.8c-.5-.7-1.4-1-2.8-1h-.3v-1.5h10.1v1.5h-.3a4.14,4.14,0,0,0-3,.9,6.14,6.14,0,0,0-.8,3.6v25.2Z"/><path class="cls-1" d="M341.8,209.1H329.9v-1.5h.3c1.3,0,2.2-.3,2.6-.9s.7-1.9.7-3.7V183.9c0-1.8-.2-3.1-.7-3.7s-1.3-.9-2.6-.9h-.3v-1.5h11.9v1.5h-.3a3,3,0,0,0-2.6,1,6.5,6.5,0,0,0-.7,3.6V203c0,1.8.2,3,.7,3.6a3.14,3.14,0,0,0,2.6.9h.3v1.6Z"/><path class="cls-1" d="M373.7,209.5h-1.3l-.1-.2-9.8-24.8a13,13,0,0,0-2.3-4.2,4.79,4.79,0,0,0-2.7-.9h-.3v-1.5h12v1.5h-.3c-2.2,0-2.5,1-2.5,1.8a3.93,3.93,0,0,0,.3,1.4l7.5,19.1,7.1-18.4a5.84,5.84,0,0,0,.4-2c0-.8-.3-1.9-2.5-1.9h-.3v-1.5h9.8v1.5h-.3c-2.2,0-4,1.9-5.5,5.8l-9.3,24.1.1.2Z"/><path class="cls-1" d="M424.2,209.1H401v-1.5h.3c1.3,0,2.2-.3,2.6-.9a7.54,7.54,0,0,0,.7-3.6V184a6.67,6.67,0,0,0-.7-3.7c-.4-.6-1.3-.9-2.6-.9H401v-1.5h23.3v5.7h-1.1v-.2a4.87,4.87,0,0,0-1.3-2.8,6.89,6.89,0,0,0-3.7-.7h-8.8v12.5h8.5a2.54,2.54,0,0,0,3.2-2.7v-.2h1.4v8h-1.4l-.1-.2c-.4-1.5-.8-2.1-1.1-2.3a6.44,6.44,0,0,0-3-.4h-7.5v10.7c0,.7.1,1.2.4,1.4a2.2,2.2,0,0,0,1.6.4h5.5a17.7,17.7,0,0,0,4-.3,4.18,4.18,0,0,0,1.8-1.1,10,10,0,0,0,1.6-2.7l.1-.2h1.5l-.1.3-1.4,5.7-.2.3Z"/><path class="cls-1" d="M473.1,209.1h-6.8l-.1-.1a66.75,66.75,0,0,1-4.8-6.8c-2-3.1-3.5-5.1-4.6-6a6,6,0,0,0-3.6-1.2h-2.3v8.1a7.25,7.25,0,0,0,.7,3.6,3.16,3.16,0,0,0,2.6,1h.3v1.5H442.6v-1.5h.3c1.3,0,2.2-.3,2.6-1a6.5,6.5,0,0,0,.7-3.6V183.9c0-1.7-.2-3-.7-3.6s-1.3-.9-2.6-.9h-.3v-1.5h13.2a12.47,12.47,0,0,1,7.8,2.3,7.39,7.39,0,0,1,3,6c0,3.7-2.1,6.3-6.1,7.6a16,16,0,0,1,2.4,2.2,42.6,42.6,0,0,1,3.6,5.2,26.62,26.62,0,0,0,3.8,5.2,4.84,4.84,0,0,0,2.7,1.3h.3v1.4Zm-22.3-16h3.6a7.15,7.15,0,0,0,5.2-1.8,6.41,6.41,0,0,0,1.9-4.9,6,6,0,0,0-2.1-4.8,8.42,8.42,0,0,0-5.6-1.9h-3v13.4Z"/><path class="cls-1" d="M496.1,209.9a17.63,17.63,0,0,1-5.6-1.2,6.72,6.72,0,0,0-1.7-.5c-.1,0-.6,0-.9,1l-.1.2h-1.4v-8.8h1.5v.3a7,7,0,0,0,2.2,5.3,7.44,7.44,0,0,0,5.1,2,6.82,6.82,0,0,0,4.4-1.4,4.64,4.64,0,0,0,1.6-3.8,5.33,5.33,0,0,0-1.4-3.4,22.73,22.73,0,0,0-5.9-4.3,34.56,34.56,0,0,1-5-3.5,10.35,10.35,0,0,1-1.9-2.9,9.51,9.51,0,0,1-.6-3.5,7.5,7.5,0,0,1,2.5-5.9,9.12,9.12,0,0,1,6.4-2.3,17.14,17.14,0,0,1,4.7.8,6.39,6.39,0,0,0,1.5.4.44.44,0,0,0,.3-.1,1.37,1.37,0,0,0,.2-.6l.1-.2h1.4v7.8H502v-.2a6.83,6.83,0,0,0-2.1-4.5,6.46,6.46,0,0,0-4.6-1.6,5.87,5.87,0,0,0-3.9,1.2,3.75,3.75,0,0,0-1.5,3.1,5.16,5.16,0,0,0,1.2,3.3,21.4,21.4,0,0,0,5.5,4,27.32,27.32,0,0,1,6.8,5.1,8,8,0,0,1,1.8,5.1,8.69,8.69,0,0,1-2.7,6.4,8.38,8.38,0,0,1-6.4,2.7Z"/><path class="cls-1" d="M534.3,209.1H522.4v-1.5h.3c1.3,0,2.2-.3,2.6-.9s.7-1.9.7-3.7V183.9c0-1.8-.2-3.1-.7-3.7s-1.3-.9-2.6-.9h-.3v-1.5h11.9v1.5H534a3,3,0,0,0-2.6,1,6.5,6.5,0,0,0-.7,3.6V203c0,1.8.2,3,.7,3.6a3.14,3.14,0,0,0,2.6.9h.3v1.6Z"/><path class="cls-1" d="M570.1,209.1H558.4v-1.5h.3c1.3,0,2.2-.3,2.6-1a6.5,6.5,0,0,0,.7-3.6V179.9h-4.3c-2.1,0-3.7.3-4.6,1a4.3,4.3,0,0,0-1.6,3.2v.3H550v-7.6h1.3l.1.1c.8.7,2.3,1.1,4.5,1.1h16.5c2.3,0,3.9-.4,4.8-1.1l.1-.1h1.4v7.6h-1.1l-.1-.2a5,5,0,0,0-2-3.3,8.51,8.51,0,0,0-4.4-.9h-4.5v23.2a7.23,7.23,0,0,0,.6,3.6c.4.6,1.2.9,2.5.9h.3v1.4Z"/><path class="cls-1" d="M613.5,209.1H601.4v-1.5h.3c1.5,0,2.4-.3,2.9-1a6.5,6.5,0,0,0,.7-3.6v-9.6l-6.7-10.1a14.66,14.66,0,0,0-2.6-3.2,4.34,4.34,0,0,0-2.7-.8H593v-1.5h12.9v1.5h-.3q-3,0-3,1.2a2.92,2.92,0,0,0,.6,1.5l6,8.9,4.8-7.3a5.57,5.57,0,0,0,1.1-2.8c0-.6-.2-1.4-1.8-1.4H613v-1.5h9.2v1.5h-.3a5.77,5.77,0,0,0-2.6.7,8.81,8.81,0,0,0-2.2,2.6l-7,10.8v9.6a6.67,6.67,0,0,0,.7,3.7,2.91,2.91,0,0,0,2.5.9h.3v1.4Z"/><path class="cls-1" d="M244.2,41.7H232.3V40.2h.3a2.88,2.88,0,0,0,2.6-1,6.33,6.33,0,0,0,.7-3.5V16.6c0-1.8-.2-3-.7-3.6a3.16,3.16,0,0,0-2.6-1h-.3V10.5h11.8c3.8,0,6.9.8,9.1,2.5a7.64,7.64,0,0,1,3.4,6.5,7.06,7.06,0,0,1-3,6.1q-3,2.1-8.4,2.1a42.14,42.14,0,0,1-4.6-.3v8.3a6.67,6.67,0,0,0,.7,3.7,3.14,3.14,0,0,0,2.6.9h.3v1.4Zm-3.6-16.2a12.77,12.77,0,0,0,3.6.4,8.12,8.12,0,0,0,5.4-1.7,5.83,5.83,0,0,0,2-4.6,7.58,7.58,0,0,0-2-5.3,7,7,0,0,0-5.4-2.1h-3.6V25.5Z"/><path class="cls-1" d="M302.5,41.7h-6.8l-.1-.1a59.62,59.62,0,0,1-4.8-6.9c-2-3.1-3.5-5.1-4.6-6a6.1,6.1,0,0,0-3.6-1.3h-2.3v8.1c0,1.7.2,3,.7,3.6a3.16,3.16,0,0,0,2.6,1h.3v1.5H272V40.1h.3c1.3,0,2.2-.3,2.6-1a6.5,6.5,0,0,0,.7-3.6V16.3a6.5,6.5,0,0,0-.7-3.6c-.4-.6-1.3-.9-2.6-.9H272V10.3h13.2a12.47,12.47,0,0,1,7.8,2.3,7.39,7.39,0,0,1,3,6c0,3.7-2.1,6.3-6.1,7.6a16,16,0,0,1,2.4,2.2,42.61,42.61,0,0,1,3.6,5.2,26.62,26.62,0,0,0,3.8,5.2,4.84,4.84,0,0,0,2.7,1.3h.3v1.6Zm-22.3-16h3.6a7.15,7.15,0,0,0,5.2-1.8,6.41,6.41,0,0,0,1.9-4.9,6,6,0,0,0-2.1-4.8,8.37,8.37,0,0,0-5.6-1.8h-3V25.7Z"/><path class="cls-1" d="M329.6,41.7H317.7V40.2h.3c1.3,0,2.2-.3,2.6-.9s.7-1.9.7-3.6V16.6a6.67,6.67,0,0,0-.7-3.7c-.4-.6-1.3-.9-2.6-.9h-.3V10.5h11.9V12h-.3a3,3,0,0,0-2.6,1,6.5,6.5,0,0,0-.7,3.6v19c0,1.8.2,3,.7,3.6a3.14,3.14,0,0,0,2.6.9h.3v1.6Z"/><path class="cls-1" d="M360,41.7H348.1V40.2h.3a3.14,3.14,0,0,0,2.6-.9,6.5,6.5,0,0,0,.7-3.6V16.6a6.67,6.67,0,0,0-.7-3.7c-.4-.6-1.3-.9-2.6-.9h-.3V10.5h22.2v6h-1.2v-.2a5.24,5.24,0,0,0-1.3-3c-.3-.3-1.2-.7-3.6-.7h-7.8V24.8h7.9a3.17,3.17,0,0,0,2.3-.7,4.87,4.87,0,0,0,1-2.6v-.2H369v9.2h-1.4v-.3c-.1-2.2-1.1-3.2-3.1-3.2h-8v8.8c0,1.8.2,3,.7,3.6a3.14,3.14,0,0,0,2.6.9h.3v1.4Z"/><path class="cls-1" d="M406.4,41.7H394.3V40.2h.3c1.5,0,2.4-.3,2.9-1a6.5,6.5,0,0,0,.7-3.6V26l-6.7-10.1a17.77,17.77,0,0,0-2.6-3.2,4.34,4.34,0,0,0-2.7-.8h-.3V10.4h12.9v1.5h-.3q-3,0-3,1.2a2.92,2.92,0,0,0,.6,1.5l6,8.9,4.8-7.3a5.57,5.57,0,0,0,1.1-2.8c0-.6-.2-1.4-1.8-1.4h-.3V10.5h9.2V12h-.3a5.77,5.77,0,0,0-2.6.7,8.81,8.81,0,0,0-2.2,2.6l-7,10.8v9.6a6.67,6.67,0,0,0,.7,3.7,2.91,2.91,0,0,0,2.5.9h.3v1.4Z"/><path class="cls-1" d="M437.5,42.4a17.63,17.63,0,0,1-5.6-1.2,6.72,6.72,0,0,0-1.7-.5c-.4,0-.7.3-.9,1l-.1.2h-1.4V33h1.5v.3a7,7,0,0,0,2.2,5.3,7.63,7.63,0,0,0,5.1,2,6.82,6.82,0,0,0,4.4-1.4,4.64,4.64,0,0,0,1.6-3.8,5.33,5.33,0,0,0-1.4-3.4,22.73,22.73,0,0,0-5.9-4.3,34.56,34.56,0,0,1-5-3.5,9.1,9.1,0,0,1-1.9-2.9,9.51,9.51,0,0,1-.6-3.5,7.5,7.5,0,0,1,2.5-5.9,9.12,9.12,0,0,1,6.4-2.3,17.14,17.14,0,0,1,4.7.8,4.35,4.35,0,0,0,1.5.3.44.44,0,0,0,.3-.1,1.37,1.37,0,0,0,.2-.6l.1-.2h1.4v7.8h-1.3v-.2a6.83,6.83,0,0,0-2.1-4.5,6.46,6.46,0,0,0-4.6-1.6,5.87,5.87,0,0,0-3.9,1.2,3.75,3.75,0,0,0-1.5,3.1,5.16,5.16,0,0,0,1.2,3.3,21.4,21.4,0,0,0,5.5,4A27.32,27.32,0,0,1,445,28a8,8,0,0,1,1.8,5.1,8.69,8.69,0,0,1-2.7,6.4,8.74,8.74,0,0,1-6.6,2.9Z"/><path class="cls-1" d="M482.2,42.4q-8.85,0-13.8-4.2a14.08,14.08,0,0,1-5-11.2,16.8,16.8,0,0,1,2.2-8.7,15.81,15.81,0,0,1,6.1-6.2A16.49,16.49,0,0,1,480,9.8a20.39,20.39,0,0,1,5.7.9,9.66,9.66,0,0,0,2.9.5,1.45,1.45,0,0,0,1.5-.8l.1-.2h1.5v9.6h-1.4v-.2a8.34,8.34,0,0,0-3.4-5.8,10.67,10.67,0,0,0-6.8-2.2,10.09,10.09,0,0,0-8,3.8c-2.1,2.5-3.1,5.8-3.1,9.8a16.74,16.74,0,0,0,3.6,11,11.22,11.22,0,0,0,9.1,4.3c3.4,0,5-1,5-3V34.2a7.07,7.07,0,0,0-.7-3.8,2.8,2.8,0,0,0-2.5-1H482V27.9h13.4v1.5h-.3a4.07,4.07,0,0,0-2.8.8,4.68,4.68,0,0,0-.8,3v8.4l-.2.1a22.41,22.41,0,0,1-4.2.5c-2.2.1-3.8.2-4.9.2Z"/><path class="cls-1" d="M527.8,42.4a16.83,16.83,0,0,1-12.1-4.8,15.63,15.63,0,0,1-4.9-11.7,15.63,15.63,0,0,1,4.9-11.6,17.16,17.16,0,0,1,12.2-4.6,16.76,16.76,0,0,1,12,4.7,15.2,15.2,0,0,1,4.9,11.5,15.73,15.73,0,0,1-5,11.7,16.12,16.12,0,0,1-12,4.8Zm.3-30.9a10.5,10.5,0,0,0-8.6,3.9c-2.2,2.6-3.3,6.2-3.3,10.6s1.1,8,3.2,10.7a10.06,10.06,0,0,0,8.4,4,10.47,10.47,0,0,0,8.5-4.1,16,16,0,0,0,3.3-10.4c0-4.4-1.1-8-3.2-10.7a10.27,10.27,0,0,0-8.3-4Z"/><path class="cls-1" d="M584.6,41.7H561.3V40.2h.3a2.63,2.63,0,0,0,2.5-1.1,6.92,6.92,0,0,0,.8-3.8V16a5.38,5.38,0,0,0-.7-3.3c-.4-.6-1.3-.9-2.6-.9h-.3V10.3h11.9v1.5h-.3a2.8,2.8,0,0,0-2.5,1,6.22,6.22,0,0,0-.8,3.5V36.7a2.93,2.93,0,0,0,.6,2.1,4.08,4.08,0,0,0,2.7.6h6.3q2.85,0,3.9-.9a10,10,0,0,0,2.1-4.1l.1-.2h1.5l-.1.4-1.9,6.7-.2.4Z"/><path class="cls-1" d="M97.5,226.8c-21.2,0-45.4-9.9-64.8-26.6C11.9,182.3,0,159.4,0,137.3V0H195.1V137.3c0,22.1-11.9,45-32.7,62.9-19.4,16.6-43.7,26.6-64.9,26.6Z"/><path d="M97.5,223.1c20.4,0,43.7-9.6,62.4-25.7,20-17.2,31.5-39.1,31.5-60.1V3.7H3.7V137.3c0,21,11.5,42.9,31.5,60.1,18.6,16.1,42,25.7,62.3,25.7Z"/><rect class="cls-2" x="130.3" y="7.2" width="57.5" height="92.7"/><path class="cls-2" d="M7.1,103H64.6V212C34.3,198.7,7.1,169.3,7.1,137.3Z"/><rect class="cls-3" x="7.2" y="7.2" width="57.5" height="92.7"/><path class="cls-3" d="M130.3,103V212c30.3-13.3,57.5-42.7,57.5-74.7V102.9H130.3Z"/><path class="cls-1" d="M102.3,200.6c.2,0,1.3-.6,1.3-2.4a2.23,2.23,0,0,0-2.3-2.4c-1.4,0-1.7,1.1-1.7,1.9C99.6,200.1,102.2,200.6,102.3,200.6Zm-11.1,2.2a12.69,12.69,0,0,0-1.6-.6,2.65,2.65,0,0,0-1.8,2.6c0,2.1,1.1,3.2,3,3.2s2.2-1.3,2.2-2.5A2.61,2.61,0,0,0,91.2,202.8Zm.1-2.2c.2,0,1.3-.6,1.3-2.4a2.23,2.23,0,0,0-2.3-2.4c-1.4,0-1.7,1.1-1.7,1.9C88.7,200.1,91.3,200.6,91.3,200.6Zm18.7,2.8c0,.2,0,.2.5.2h3.2v-6.7a40.35,40.35,0,0,0-2.4,3.8A13.93,13.93,0,0,0,110,203.4ZM127.3,7.3V7.2H67.7v.1h-.1V213.2a86.64,86.64,0,0,0,23.1,6,57.67,57.67,0,0,0,23.8-1.8,90.44,90.44,0,0,0,12.8-4.1V213c.1,0,.1-.1.2-.1V7.3ZM83.8,209.1H77.2v-.8h.2l1.5-.4c.6-.2.6-.2.6-.8v-9.7c0-.7,0-.8-.6-.8H77v-.2l-.1-.4v-.2l.2-.1,4.1-1.2h.1l.1.1.3.2.1.1v12.4c0,.4,0,.6.7.7l1.5.4h.2v.7Zm6.3.2c-2.6,0-4.2-1.6-4.2-4.3a3.56,3.56,0,0,1,2.1-3.3c.2-.1.4-.2.4-.3h0a1,1,0,0,0-.3-.1c-.6-.3-1.6-1-1.6-3.1,0-2.5,2.2-3.8,4.3-3.8,2.4,0,3.7,1.3,3.7,3.6a3.39,3.39,0,0,1-1.8,2.9.22.22,0,0,0-.2.2c.1.1.2.1.4.2a3.36,3.36,0,0,1,2.3,3.4C95.1,207.5,93.2,209.3,90.1,209.3Zm11,0c-2.6,0-4.2-1.6-4.2-4.3a3.56,3.56,0,0,1,2.1-3.3c.2-.1.4-.2.4-.3h0a1,1,0,0,0-.3-.1c-.6-.3-1.6-1-1.6-3.1,0-2.5,2.2-3.8,4.3-3.8,2.4,0,3.7,1.3,3.7,3.6a3.39,3.39,0,0,1-1.8,2.9.22.22,0,0,0-.2.2c.1.1.2.1.4.2a3.36,3.36,0,0,1,2.3,3.4C106.1,207.5,104.2,209.3,101.1,209.3Zm17.2-5.2-.8,1.1-.1.1h-1.6V207c0,.7,0,.7.6.9l1,.3h.2v.8h-5.4v-.8h.2l1.1-.3c.3-.1.3-.1.3-.8v-1.7h-5.7l-.1-.1-.2-.1-.1-.1V205l.4-1.4a14,14,0,0,1,1-1.6,23.57,23.57,0,0,1,1.5-2.5c1.3-2,2.5-3.6,2.9-4.2v-.1h.1l1.8-.5h.1l.1.1.2.1.1.1v8.8h2.2l.1.1.1.2.1.1Zm-16.2-1.3a12.69,12.69,0,0,0-1.6-.6,2.65,2.65,0,0,0-1.8,2.6c0,2.1,1.1,3.2,3,3.2s2.2-1.3,2.2-2.5A2.5,2.5,0,0,0,102.1,202.8Z"/><path d="M144.8,45c-.1,1.4-1,.2-1,.2a8.24,8.24,0,0,1-2.2-5.3c.7-.4,1-1.8,1.2-1.9s2.1-1,2.1-1.9-2.6-6.6-2.6-8.7l-2.2,3-1.7-3-1.3,3.5-1.4-1.7s-.7,5.1-.4,6c.7,2.5,1.8,2.2,1.8,3.1,0,1.3-2.4,2.3-2.4,2.3.3.7,1.6,7.2,2.6,10.3,1.1,3.6,1.9,3.9,2.6,5.4.6,1.2.9,4,2.3,4s5.5-1.5,5.5-1.5c-1.3,1.3-2,14.5-4.1,14.5-1.5,0-5.2.1-5.2.1a32.13,32.13,0,0,0-3,7.8l3.2-1.9-1,5.1,3.9-2.9,1.6,5,1.4-2.3a3.06,3.06,0,0,1,.8-2.7c1-1.4,2.7-3.7,2.7-3.7l2,.5a4.39,4.39,0,0,0,.8-3l.6-.1.6-1.4.9-2.4c.3-.8,3.7-9.5,4.7-12.2a6.53,6.53,0,0,0,.6-2.9,7.45,7.45,0,0,1-.2-1.8,6.44,6.44,0,0,1,2.1-3.7v.1a1.12,1.12,0,0,0,1,1.2,1.49,1.49,0,0,0,.8-.3,3.78,3.78,0,0,1,2.5-.8h.5c-1.4.5-3.1,2.3-3.1,5.5a20.57,20.57,0,0,0,1.6,6.7c.2.5.4,1.2.5,1.5a1.38,1.38,0,0,1-.4.3c-1.4,1.1-2.9,2.3-3.4,3.4v.1l-4.4.6L152.4,75l2.1-.7-2,4.4,4-1.7s-.9,3,0,4.2c.1-.1,1.4-1,1.4-1a10.69,10.69,0,0,1,1.1-2c.4-.4,2.9-3,2.9-3l.6,1.5c3-1.5,8.5-8.6,8.7-9.8,0-1.2-2.2-3.1-2.2-6a3,3,0,0,1,.7-2.3c0,2,4.8,6.5,5.2,7.8-1.1.6-3.2,6.9-3.4,7.7-.9,0-5.4,1-5.4,1a15.91,15.91,0,0,0-3.4,6.1l3.7-.7-.6,4.3,1.6-.3a5.89,5.89,0,0,1,4.1-2.7l2.3,3.7,1.5-1.7s.2-4.8,1-5.4l1.8.7c4.9-3.6,5.6-16.5,4.9-16.9-.4-.3-.6.3-1.9-1.4-2.1-2.6-1.8-8.6-3.7-10.7,0,0,.2-.2,1.1-.2a5.24,5.24,0,0,0,4.4-5.4,7.77,7.77,0,0,0-4.2-7,4.07,4.07,0,0,0,.5-2c0-3.8-4.2-3.8-4.3-4.4,2-.4,4.2-2.8,4.3-4.5.5-4.9-5-7.7-7.3-5.3.7.7,2.5,1.4,2.5,3.2,0,3.1-3.4,4.7-3.4,4.7a6.68,6.68,0,0,0,.6-2.7,4,4,0,0,0-4.2-4.1,5.2,5.2,0,0,0-5.1,3.6c1,0,4.3-.3,4.3,1.6,0,2.5-4.2,4-4.2,8s3.6,7.1,7.6,7.3a16.36,16.36,0,0,0,2,.1c.8,0,1.3.9,3,.9,2.1,0,2.6-1,3.3-1s.7.7.7,1.1.1,1.4-2.4,1.4c-2.7,0-7.6-1.4-12.1-1.4-3.5,0-4,.1-4.1.3a6.11,6.11,0,0,0,.8-2.4c-.8-.4-1.5-2.7-1.9-2.7,3.7-3.4,3.2-6.4,3.2-7-.3-.8-.8-1-1.7-1a2.36,2.36,0,0,0-1.4.4,15.8,15.8,0,0,0-.8-4.3c-1.2-1.8-7.1-3.1-9.4.4L148,30.5a2.87,2.87,0,0,0-2.9.2s.1.9.1,1.6-.1,1.5-.1,2.3,1.6,3.7,1.6,3.7c-.9,1.3-4,2.8-4,2.8A17.08,17.08,0,0,1,144.8,45Z"/><path class="cls-3" d="M145.9,44.3c.4-.3,1.5-2,2.5-2-.1.6-1.7,1.9-2.2,3s.3,2.1.8,2.9c-.1-.7,1.6-1.8,2.1-2.4s1-.4.6.4c-.4,1-1.8,2-1.8,3.4,0,.8.6,1.3,1.3,1.7,0,0,.3-2.5,1.3-1.8.4.3-1.7,4.2,0,5.7.3-1.1,2.8-3.1,2.8-3.6s-.9-2.3,0-2.3c.5,0,1,1.6,1.3,1.6a1.06,1.06,0,0,0,1-1c0-.6-1.6-3.2-.6-3.2.4,0,1.5,1.7,1.7,1.7s.5-.2.8-1.6-1.2-1.9-.7-3.3a4.83,4.83,0,0,1,1.8,1.5c.4.8,1.3-1.4,1.4-2.1a21.72,21.72,0,0,1-1-2.1c-.4-.6-1-.8-1-1s.5-.4,2.3-2.4a6.21,6.21,0,0,0,1.5-4.5c-1-1-1.9.4-2.8,0s-.4-3.1-.7-4.1c0,0-1.1,1.8-1.4,1.6s.1-1,.3-1.9-1.2-1.3-1.2-1.3-.4,1.8-1,1.7-.4-1.8-.4-1.8-1.2-.7-1.5.8c-.3,1.8-1.1.3-1.6-.5-.6.3-.4,2.3-.4,3s-1.2-.6-1.8-.9c.2.6-.5,1.5-.5,2.2s-2.3-.4-2.8.1a11.82,11.82,0,0,0,.1,3.7c.6,1.6,1.5,2.3,1.5,3.3s-1.4,1.3-3.9,2.9C144.9,41.9,144.9,45.1,145.9,44.3Zm8.5-12.8c.5.6,1.5,1.4,2.3.7.3.1.5.2.1.7s-.4,1.6-1.2,1.5c-1.4-.1-.8-2.1-1.3-2.6Zm-1.4-.2.2.4c-.4.1-.5,2.3-1.5,2.3-1.3,0-.3-1.5-1.3-1.8A5.26,5.26,0,0,0,153,31.3Zm-5.6,3.1a1.25,1.25,0,0,1,1.3-1.4c.7,0,.7,2.2,1,2.7s1.3.3,1.5.6c-.3.5-1.3,1-1.3,1.7a.88.88,0,0,0,.9.9c.4,0,2.1-.5,2.1-1.5,0-.5-.4-.8-.6-1.1s-.1-.8-.3-.9a18.13,18.13,0,0,1,1.9-.3c.5,0,.6.3.6.8s-1,.8-1,1.3,1.3,1.7,1.7,1.7,1.3-.3,1.3-1-.4-1.4,0-1.8c.2-.2.7.2.7.2.8-.8,1.3-2.3,2.8-2.5,1.5,2.7-1.7,3.7-1.7,3.7L157,37c.5,1.5-.8,2.1-.8,2.7.1,1.7-.2,2.3-.9,2.8-.4-.1-1.3-.2-1.3.2.8,1.4-1.6,3-1.3,3.6a23.21,23.21,0,0,1-1.4-2.3c-.3-.3.2-.8-.1-1.7-.2-.5-1.2.1-1.3-.7s.1-2.5-.8-3C149.2,37.1,147.4,36,147.4,34.4Zm25.5,6.1c0,1.2.6,2.9,2.4,2.9,2.1,0,2.2-1,3.3-1s1.7.9,1.7,2-.6,2.4-3.4,2.4c-5,0-6.3-1.4-12.3-1.4-5.7,0-5.2,2.3-8.8,5.9s-6.5,6.3-6.5,6.3l.2.6C147.8,60,146.9,69,146,72.1s-5.7,4.4-5.7,4.4l-1.1,6,2.3-2a12.54,12.54,0,0,1-.2-1.7c-.1-1.3,3.6-4,5.3-5.1-.3,1.7-4.4,4.9-4.4,4.9a7.61,7.61,0,0,1,.4,2.3,20.29,20.29,0,0,0,.9,3.5l.2-.4a6.34,6.34,0,0,1,.4-1.9c.6-1.2,3.6-5.2,3.6-5.2l2,.3c1-1.6-.4-3.1-.7-4.1.8-.8,1.2-.4,2.2.5.7-1.7.1-1.9-.5-3.3s.5-1.1,2-.3c.6-.9.4-1.7-.4-3.7s1-1,1.9-.4c.7-1,.4-1.2-.4-3.3s.4-1.7,1.8-.7c.9-2.3.1-1.9-.4-3.4s.9-1.4,2-.4c1-.9.2-1.3.2-3.7,0-1.8,2.1-5.1,5.6-6.4,1.2,1.2-1.6,1.4-1.6,2.8,0,.8.6-.9,3.4-.9s3,1.4,3.7,1.4.1-2,.1-2c3.3,0,2.2,3.3,2.2,7.3s5.6,7.9,5.7,10.2c-2,1.2-2.6,6.3-4.4,9.1-1,1.1-2.3,1.2-3.5,1.8l-1.2,5.2a9.51,9.51,0,0,1,3.6-1.8c-1.2-2.5.4-3.1,1-3.7s3.4-4.1,3.4-4.1l.4.4s-1.4,3.9-3.6,4.9c-.6,1.2,1.5,4.5,2,5.3a2,2,0,0,1,.5-.5s.2-4.4.9-5.1c.8-.9,1-.8,2.5-.2.7-.7.3-2.4-.3-3.5.7-1.2,1.7,1.2,2,.8,1.2-1.6-1.1-2.8-.3-4.3,0,0,1.2,1.2,1.5.9s.1-1.1-.1-1.9c-1.5-3.6.8-1.2,1-1.4.5-.3-.1-2.6-.7-3.2-.4,1-2.5,5-3.7,7.7-.2.5-1.3.7.2-4.1,1.8-5.6,3.9-4.7,4.7-4.4-.1-2.6-2.7-2.8-2.9-4.6-2.6-1.1-.4-10-5.8-12.2l6.8-.5c-1.3,1.3-3.9.9-3.9.9s0,.8,2,.8,3.7-1.9,3.7-4.4c0-1.9-2.3-6-4.4-6-1.8,0-2.6,2.8-3,2.5-1.1-.5-.3-1,.1-1.7,1.4-2.4,3.7-1.8,3.7-3.8,0-3.7-4.7-3.8-5.4-3.1s2.2,0,2.1,2.3c0,.4,1.4-1.2,1.4-1.1C176.7,35.6,172.9,36.9,172.9,40.5ZM167.7,39c.5.9,4.8.7,4.8-3.3,0-2.1-1.8-2.6-1.8-3.1,0-1.5,7.9-2,7.9-5.8a5.56,5.56,0,0,0-.6-2.9s.1,3-.8,3c-1.5,0-.1-1.7-.1-2.6,0-3.2-3.4-2.5-3.4-2.5s2,.1,2,3.3c0,4.1-6,6.5-6.4,6.1s1.6-1.8,1.6-4.1c0-1.1-.4-3.4-2.8-3.4-2.8,0-4.6,1.9-3.5,1.7s3.3.6,3.3,2.5c0,3.2-4.2,4-4.2,8.1,0,5.1,5.2,6.3,6.8,6.3a5.54,5.54,0,0,0,2-.2,2.8,2.8,0,0,1-.3-1.6,6.77,6.77,0,0,1-1.9.3c-3.9,0-4.4-3-4.4-4s1-3,2.6-2.8C171.8,34.2,169.8,37.9,167.7,39Zm-3.8,33.3c.5-.7,1.3,1.6,1.3,1.6,2-1.8-.2-2.8.4-3.3.9-.7,2.3.4,2.3.4,1.1-.9-.6-1.9-.1-2.5.9-1.2,1.2-.1,1.9-.4s1.4-.9.7-1.8-3.1-5.1-1-8.1a2.53,2.53,0,0,0-1.6,1.5c-.3,1.1.8,6.6.8,7.4l-6,5.1s-.4-.4.4-1.5a57.73,57.73,0,0,1,4.6-4.1c-.9-1.2.4-4.4-1.5-5.5-.5-.2-1.9-.6-.7-1.5.8-.6,2.1-.3,2.1-2.9a2.67,2.67,0,0,0-2.4-2.8c.3-.8,2.4-.6,3-1.4-1.1-.5-1.1-.6-1.9-.6s-3.1,1.2-3.1,4.7,2.7,8.2,2.2,8.7-3.2,2.3-3.8,3.6-3.8,3.4-3.8,3.4l-3.1,5,2-1.2s.7-2.4,1.9-3.2c1.7-1,3.3-2.8,3.5-2.6s-1.3,2.4-3,3.3c-.5,1-1.7,4.7-1.6,5.5,0,0,3.6-4.4,4.7-4.8s1.4.9,1.4.9C164.9,74.3,163.4,73,163.9,72.3Zm-7-1.2c.7-.6,2.1-.8,2.9-1.6l-3.4.8-2,3.1,1.6-.7A5.44,5.44,0,0,1,156.9,71.1Zm-16.8,4.6a18.13,18.13,0,0,0,3.5-1.3c-1.6.2-4.3.2-4.3.2l-2.4,4.9,2.3-1.3S139.2,75.9,140.1,75.7Zm-3.5-31.2c0,1.8,2.3,2.5,2.4,3.4s-1.8-.6-1.7-.3c.3,2.4,2.3,2.7,3.1,4,.4.8-1.9-.3-1.8-.1.5,2.8,3.5,1.8,4,3.6.3,1-1.9-.6-1.9.3,0,.6,1.1,3.8,1.8,4a14.68,14.68,0,0,0,3.7-1c.9-.4,2.8-.7,3-1.6-1-1.6-3.7-5.3-4.1-8.7-2.1-2.3-4.2-5.5-4.2-8.2a15.94,15.94,0,0,1,.8-4.9l-3-5.6-.6,2.5s2.8,2.6,2.7,3.5S140,39,140,39c-.5.7-.4-3.5-.4-3.5l-3.2-4.1s-.1,2.7,0,3.5c.3,1.6,1.8,2.3,1.8,3.3a4.82,4.82,0,0,1-1.9,2.9c-.1,1.2,2.1,2.3,2.2,3.3C137.8,45.2,136.6,44.1,136.6,44.5Zm5.3-6.8c.5-.8,2.2-1.1,2.2-1.9s-2.1-5.3-2.2-6.5l-1.3,2.4s1.9,2.7,1.9,3.6S141.8,36.5,141.9,37.7Zm29.6,37.6c-2.1.4-4.9,1-4.9,1l-2.4,3.9,2.8-.6c.3-1.3.4-2.1,1-2.6C169.3,75.9,171.2,75.9,171.5,75.3Z"/><path d="M22.8,129.5c-.1,1.4-1,.2-1,.2a8.24,8.24,0,0,1-2.2-5.3c.7-.4,1-1.8,1.2-1.9s2.1-1,2.1-1.9-2.6-6.6-2.6-8.7l-2.2,3-1.7-3-1.3,3.5-1.4-1.7s-.7,5.1-.4,6c.7,2.5,1.8,2.2,1.8,3.1,0,1.3-2.4,2.3-2.4,2.3.3.7,1.6,7.2,2.6,10.3,1.1,3.6,1.9,3.9,2.6,5.4.6,1.2.9,4,2.3,4s5.5-1.5,5.5-1.5c-1.3,1.3-2,14.5-4.1,14.5-1.5,0-5.2.1-5.2.1a32.13,32.13,0,0,0-3,7.8l3.2-1.9-1,5.1,3.9-2.9,1.6,5,1.4-2.3a3.06,3.06,0,0,1,.8-2.7c1-1.4,2.7-3.7,2.7-3.7l2,.5a4.39,4.39,0,0,0,.8-3l.6-.1.6-1.4.9-2.4c.3-.8,3.7-9.5,4.7-12.2a6.53,6.53,0,0,0,.6-2.9A7.45,7.45,0,0,1,36,139a6.44,6.44,0,0,1,2.1-3.7v.1a1.12,1.12,0,0,0,1,1.2,1.49,1.49,0,0,0,.8-.3,3.78,3.78,0,0,1,2.5-.8h.5c-1.4.5-3.1,2.3-3.1,5.5a20.57,20.57,0,0,0,1.6,6.7c.2.5.4,1.2.5,1.5l-.3.3c-1.4,1.1-2.9,2.3-3.4,3.4v.1l-4.4.6-3.3,5.9,2.1-.7-2,4.4,4-1.7s-.9,3,0,4.2c.1-.1,1.4-1,1.4-1a10.69,10.69,0,0,1,1.1-2c.4-.4,2.9-3,2.9-3l.6,1.5c3-1.5,8.5-8.6,8.7-9.8,0-1.2-2.2-3.1-2.2-6a3,3,0,0,1,.7-2.3c0,2,4.8,6.5,5.2,7.8-1.1.6-3.2,6.9-3.4,7.7-.9,0-5.4,1-5.4,1a15.91,15.91,0,0,0-3.4,6.1l3.7-.7-.6,4.3,1.6-.3a5.89,5.89,0,0,1,4.1-2.7l2.3,3.7,1.5-1.7s.2-4.8,1-5.4l1.8.7c4.9-3.6,5.6-16.5,4.9-16.9-.4-.3-.6.3-1.9-1.4-2.1-2.6-1.8-8.6-3.7-10.7,0,0,.2-.2,1.1-.2A5.24,5.24,0,0,0,61,129a7.77,7.77,0,0,0-4.2-7,4.07,4.07,0,0,0,.5-2c0-3.8-4.2-3.8-4.3-4.4,2-.4,4.2-2.8,4.3-4.5.5-4.9-5-7.7-7.3-5.3.7.7,2.5,1.4,2.5,3.2,0,3.1-3.4,4.7-3.4,4.7a6.68,6.68,0,0,0,.6-2.7,4,4,0,0,0-4.2-4.1,5.2,5.2,0,0,0-5.1,3.6c1,0,4.3-.3,4.3,1.6,0,2.5-4.2,4-4.2,8s3.6,7.1,7.6,7.3a16.36,16.36,0,0,0,2,.1c.8,0,1.3.9,3,.9,2.1,0,2.6-1,3.3-1s.7.7.7,1.1.1,1.4-2.4,1.4c-2.7,0-7.6-1.4-12.1-1.4-3.5,0-4,.1-4.1.3a6.11,6.11,0,0,0,.8-2.4c-.8-.4-1.5-2.7-1.9-2.7,3.7-3.4,3.2-6.4,3.2-7-.3-.8-.8-1-1.7-1a2.36,2.36,0,0,0-1.4.4,15.8,15.8,0,0,0-.8-4.3c-1.2-1.8-7.1-3.1-9.4.4L26.1,115a2.87,2.87,0,0,0-2.9.2s.1.9.1,1.6-.1,1.5-.1,2.3,1.6,3.7,1.6,3.7c-.9,1.3-4,2.8-4,2.8A28.31,28.31,0,0,1,22.8,129.5Z"/><path class="cls-3" d="M23.8,128.8c.4-.3,1.5-2,2.5-2-.1.6-1.7,1.9-2.2,3s.3,2.1.8,2.9c-.1-.7,1.6-1.8,2.1-2.4s1-.4.6.3c-.4,1-1.8,2-1.8,3.4,0,.8.6,1.3,1.3,1.7,0,0,.3-2.5,1.3-1.8.4.3-1.7,4.2,0,5.7.3-1.1,2.8-3.1,2.8-3.6s-.9-2.3,0-2.3c.5,0,1,1.6,1.3,1.6a1.06,1.06,0,0,0,1-1c0-.7-1.6-3.2-.6-3.2.4,0,1.5,1.7,1.7,1.7s.5-.2.8-1.6-1.2-1.9-.7-3.3a4.83,4.83,0,0,1,1.8,1.5c.4.8,1.3-1.4,1.4-2.1a21.71,21.71,0,0,1-1-2.1c-.4-.6-1-.8-1-1s.5-.4,2.3-2.4a6.21,6.21,0,0,0,1.5-4.5c-1-1-1.9.4-2.8,0s-.4-3.1-.7-4.1c0,0-1.1,1.8-1.4,1.6s.1-1,.3-1.9-1.2-1.3-1.2-1.3-.4,1.8-1,1.7-.4-1.8-.4-1.8-1.2-.7-1.5.8c-.3,1.8-1.1.3-1.6-.5-.6.3-.4,2.3-.4,3s-1.2-.6-1.8-.9c.2.6-.5,1.5-.5,2.2s-2.3-.4-2.8.1a11.82,11.82,0,0,0,.1,3.7c.6,1.6,1.5,2.3,1.5,3.3s-1.4,1.3-3.9,2.9C22.8,126.5,22.9,129.6,23.8,128.8ZM32.4,116c.5.6,1.5,1.4,2.3.7.3.1.5.2.1.7s-.4,1.6-1.2,1.5c-1.4-.1-.8-2.1-1.3-2.6Zm-1.5-.2.2.4c-.4.1-.5,2.3-1.5,2.3-1.3,0-.3-1.5-1.3-1.8A5.26,5.26,0,0,0,30.9,115.8ZM25.3,119a1.25,1.25,0,0,1,1.3-1.4c.7,0,.7,2.2,1,2.7s1.3.3,1.5.6c-.3.5-1.3,1-1.3,1.7a.88.88,0,0,0,.9.9c.4,0,2.1-.5,2.1-1.5,0-.5-.4-.8-.6-1.1s-.1-.8-.3-.9a18.13,18.13,0,0,1,1.9-.3c.5,0,.6.3.6.8s-1,.8-1,1.3,1.3,1.7,1.7,1.7,1.3-.3,1.3-1-.4-1.4,0-1.8c.2-.2.7.2.7.2.8-.8,1.3-2.3,2.8-2.5,1.5,2.7-1.7,3.7-1.7,3.7l-1.3-.5c.5,1.5-.8,2.1-.8,2.7.1,1.7-.2,2.3-.9,2.8-.4-.1-1.3-.2-1.3.2.8,1.4-1.6,3-1.3,3.6a23.2,23.2,0,0,1-1.4-2.3c-.3-.3.2-.8-.1-1.7-.2-.5-1.2.1-1.3-.7s.1-2.5-.8-3C27.2,121.6,25.3,120.5,25.3,119Zm25.5,6c0,1.2.6,2.9,2.4,2.9,2.1,0,2.2-1,3.3-1s1.7.9,1.7,2-.6,2.4-3.4,2.4c-5,0-6.3-1.4-12.3-1.4-5.7,0-5.2,2.3-8.8,5.9s-6.5,6.3-6.5,6.3l.2.6c-1.7,1.8-2.6,10.8-3.5,13.9s-5.7,4.4-5.7,4.4l-1.1,6,2.3-2a12.54,12.54,0,0,1-.2-1.7c-.1-1.3,3.6-4,5.3-5.1-.3,1.7-4.4,4.9-4.4,4.9a7.61,7.61,0,0,1,.4,2.3,20.29,20.29,0,0,0,.9,3.5l.2-.4a6.34,6.34,0,0,1,.4-1.9c.6-1.2,3.6-5.2,3.6-5.2l2,.3c1-1.6-.4-3.1-.7-4.1.8-.8,1.2-.4,2.2.5.7-1.7.1-1.9-.5-3.3s.5-1.1,2-.3c.6-.9.4-1.7-.4-3.7s1-1,1.9-.4c.7-1,.4-1.2-.4-3.3s.4-1.7,1.8-.7c.9-2.3.1-1.9-.4-3.4s.9-1.4,2-.4c1-.9.2-1.3.2-3.7,0-1.8,2.1-5.1,5.6-6.4,1.2,1.2-1.6,1.4-1.6,2.8,0,.8.6-.9,3.4-.9s3,1.4,3.7,1.4.1-2,.1-2c3.3,0,2.2,3.3,2.2,7.3s5.6,7.9,5.7,10.2c-2,1.2-2.6,6.3-4.4,9.1-1,1.1-2.3,1.2-3.5,1.8l-1.2,5.2a9.51,9.51,0,0,1,3.6-1.8c-1.2-2.5.4-3.1,1-3.7s3.4-4.1,3.4-4.1l.4.4s-1.4,3.9-3.6,4.9c-.6,1.2,1.5,4.5,2,5.3a2,2,0,0,1,.5-.5s.2-4.4.9-5.1c.8-.9,1-.8,2.5-.2.7-.7.3-2.4-.3-3.5.7-1.2,1.7,1.2,2,.8,1.2-1.6-1.1-2.8-.3-4.3,0,0,1.2,1.2,1.5.9s.1-1.1-.1-1.9c-1.5-3.6.8-1.2,1-1.4.5-.3-.1-2.6-.7-3.2-.4,1-2.6,5-3.7,7.7-.2.5-1.3.7.2-4.1,1.8-5.6,3.9-4.7,4.7-4.4-.1-2.6-2.7-2.8-2.9-4.6-2.6-1.1-.4-10-5.8-12.2l6.8-.5c-1.3,1.3-3.9.9-3.9.9s0,.8,2,.8,3.7-1.9,3.7-4.4c0-1.9-2.3-6-4.4-6-1.8,0-2.5,2.8-3,2.5-1.1-.5-.3-1,.1-1.7,1.4-2.4,3.7-1.8,3.7-3.8,0-3.7-4.7-3.8-5.4-3.1s2.2,0,2.1,2.3c0,.4,1.4-1.2,1.4-1.1C54.6,120.1,50.8,121.4,50.8,125Zm-5.2-1.5c.5.9,4.8.7,4.8-3.3,0-2.1-1.8-2.6-1.8-3.1,0-1.5,7.9-2,7.9-5.8a5.56,5.56,0,0,0-.6-2.9s.1,3-.8,3c-1.5,0-.1-1.7-.1-2.6,0-3.2-3.4-2.5-3.4-2.5s2,.1,2,3.3c0,4.1-6,6.5-6.4,6.1s1.6-1.8,1.6-4.1c0-1.1-.4-3.4-2.8-3.4-2.8,0-4.6,1.9-3.5,1.7s3.3.6,3.3,2.5c0,3.2-4.2,4-4.2,8.1,0,5.1,5.2,6.3,6.8,6.3a5.54,5.54,0,0,0,2-.2,2.8,2.8,0,0,1-.3-1.6,6.77,6.77,0,0,1-1.9.3c-3.9,0-4.4-3-4.4-4s1-3,2.6-2.8C49.7,118.7,47.7,122.4,45.6,123.5Zm-3.8,33.3c.5-.7,1.3,1.6,1.3,1.6,2-1.8-.2-2.8.4-3.3.9-.7,2.3.4,2.3.4,1.1-.9-.6-1.9-.1-2.5.9-1.2,1.2-.1,1.9-.4s1.4-.9.7-1.8-3.1-5.1-1-8.1a2.53,2.53,0,0,0-1.6,1.5c-.3,1.1.8,6.6.8,7.4l-6,5.1s-.4-.4.4-1.5a57.73,57.73,0,0,1,4.6-4.1c-.9-1.2.4-4.4-1.5-5.5-.5-.2-1.9-.6-.7-1.5.8-.6,2.1-.3,2.1-2.9a2.67,2.67,0,0,0-2.4-2.8c.3-.8,2.4-.6,3-1.4-1.1-.5-1.1-.6-1.9-.6s-3.1,1.2-3.1,4.7,2.7,8.2,2.2,8.7-3.2,2.3-3.8,3.6-3.8,3.4-3.8,3.4l-3.1,5,2-1.2s.7-2.4,1.9-3.2c1.7-1,3.3-2.8,3.5-2.6s-1.3,2.4-3,3.3c-.5,1-1.7,4.7-1.6,5.5,0,0,3.6-4.4,4.7-4.8s1.4.9,1.4.9C42.8,158.8,41.3,157.5,41.8,156.8Zm-6.9-1.2c.7-.6,2.1-.8,2.9-1.6l-3.4.8-2,3.1,1.6-.7A2.73,2.73,0,0,1,34.9,155.6ZM18,160.2a18.13,18.13,0,0,0,3.5-1.3c-1.6.2-4.3.2-4.3.2L14.8,164l2.3-1.3S17.1,160.5,18,160.2Zm-3.5-31.1c0,1.8,2.3,2.5,2.4,3.4s-1.8-.6-1.7-.3c.3,2.4,2.3,2.7,3.1,4,.4.8-1.9-.3-1.8-.1.5,2.8,3.5,1.8,4,3.6.3,1-1.9-.6-1.9.3,0,.6,1.1,3.8,1.8,4a14.68,14.68,0,0,0,3.7-1c.9-.4,2.8-.7,3-1.6-1-1.6-3.7-5.3-4.1-8.7-2.1-2.3-4.2-5.5-4.2-8.2a15.94,15.94,0,0,1,.8-4.9l-3-5.6-.6,2.5s2.8,2.6,2.7,3.5-.8,3.6-.8,3.6c-.5.7-.4-3.5-.4-3.5L14.3,116s-.1,2.7,0,3.5c.3,1.6,1.8,2.3,1.8,3.3a4.82,4.82,0,0,1-1.9,2.9c-.1,1.2,2.1,2.3,2.2,3.3C15.8,129.7,14.5,128.6,14.5,129.1Zm5.3-6.9c.5-.8,2.2-1.1,2.2-1.9s-2.1-5.3-2.2-6.5l-1.3,2.4s1.9,2.7,1.9,3.6S19.7,121,19.8,122.2Zm29.7,37.6c-2.1.4-4.9,1-4.9,1l-2.4,3.9,2.8-.6c.3-1.3.4-2.1,1-2.6C47.2,160.5,49.1,160.4,49.5,159.8Z"/><path d="M21.9,44.8c-.1,1.4-1,.2-1,.2a8.24,8.24,0,0,1-2.2-5.3c.7-.4,1-1.8,1.2-1.9s2.1-1,2.1-1.9-2.6-6.5-2.6-8.7l-2.2,3-1.7-2.9-1.3,3.5-1.4-1.6s-.7,5.1-.4,6c.7,2.5,1.8,2.2,1.8,3.1,0,1.3-2.4,2.3-2.4,2.3.3.7,1.6,7.2,2.6,10.3,1.1,3.6,1.9,3.9,2.6,5.4.6,1.2.9,4,2.3,4s5.5-1.5,5.5-1.5c-1.3,1.3-1.9,14.4-4.1,14.4-1.5,0-5.2.1-5.2.1A30.19,30.19,0,0,0,12.6,81l3.2-1.9-1,5.1,3.9-2.9,1.6,5L21.7,84a3.06,3.06,0,0,1,.8-2.7c1-1.4,2.6-3.7,2.6-3.7l2,.5a4.39,4.39,0,0,0,.8-3l.6-.1.6-1.4.9-2.4c.3-.7,3.7-9.5,4.7-12.2a6.39,6.39,0,0,0,.6-2.8,7.45,7.45,0,0,1-.2-1.8,6.27,6.27,0,0,1,2-3.6v.1a1.12,1.12,0,0,0,1,1.2,1.49,1.49,0,0,0,.8-.3,3.78,3.78,0,0,1,2.5-.8h.5c-1.4.5-3.1,2.3-3.1,5.5a19.39,19.39,0,0,0,1.6,6.6c.2.5.4,1.2.5,1.5l-.3.3c-1.4,1.1-2.9,2.3-3.3,3.4v.1l-4.4.6-3.3,5.9,2.1-.7-2,4.4,4-1.6s-.9,3,0,4.2c.1-.1,1.4-1,1.4-1a10.69,10.69,0,0,1,1.1-2l2.9-2.9.6,1.5c3-1.5,8.5-8.5,8.7-9.8,0-1.2-2.2-3.1-2.2-5.9a3.33,3.33,0,0,1,.7-2.3c0,2,4.8,6.5,5.2,7.8-1.1.6-3.2,6.8-3.4,7.7-.9,0-5.4,1-5.4,1A15,15,0,0,0,40,81.4l3.6-.7L43,85l1.6-.3s1.5-2.5,4-2.7l2.3,3.7L52.4,84s.2-4.8,1-5.4l1.8.7c4.9-3.6,5.6-16.5,4.9-16.9-.4-.3-.6.3-1.9-1.4-2.1-2.6-1.8-8.6-3.7-10.7,0,0,.2-.2,1.1-.2A5.24,5.24,0,0,0,60,44.7a7.77,7.77,0,0,0-4.2-7,4.07,4.07,0,0,0,.5-2c0-3.8-4.2-3.8-4.3-4.4,2-.4,4.2-2.8,4.3-4.5.5-4.9-5-7.6-7.3-5.3.7.6,2.5,1.4,2.5,3.2,0,3.1-3.4,4.7-3.4,4.7a6.68,6.68,0,0,0,.6-2.7,4,4,0,0,0-4.2-4.1,5.2,5.2,0,0,0-5.1,3.6c1,0,4.3-.3,4.3,1.6,0,2.5-4.2,3.9-4.2,8s3.6,7,7.6,7.3a16.36,16.36,0,0,0,2,.1c.8,0,1.3.9,2.9.9,2.1,0,2.6-1,3.2-1s.7.7.7,1.1.1,1.4-2.4,1.4c-2.7,0-7.6-1.4-12-1.4-3.5,0-3.9.1-4.1.3a6.24,6.24,0,0,0,.7-2.4c-.8-.4-1.5-2.7-1.9-2.7,3.7-3.4,3.2-6.3,3.2-7-.3-.8-.8-1-1.7-1a2.36,2.36,0,0,0-1.4.4,15.8,15.8,0,0,0-.8-4.3c-1.2-1.8-7.1-3-9.4.4l-1.2,2.8a3,3,0,0,0-2.9.2s.1.9.1,1.6S22,34,22,34.8s1.6,3.6,1.6,3.6c-.9,1.3-4,2.8-4,2.8A12.41,12.41,0,0,1,21.9,44.8Z"/><path class="cls-2" d="M22.9,44.2c.4-.3,1.5-2,2.5-2-.1.6-1.7,1.9-2.2,3s.3,2.1.8,2.9c-.1-.7,1.6-1.8,2.1-2.4s1-.4.6.3c-.4,1-1.8,2-1.8,3.4,0,.8.6,1.3,1.3,1.7,0,0,.3-2.5,1.3-1.8.4.3-1.7,4.2,0,5.7.3-1.1,2.8-3,2.8-3.6s-.9-2.3,0-2.3c.5,0,1,1.6,1.3,1.6a1.06,1.06,0,0,0,1-1c0-.6-1.6-3.2-.6-3.2.4,0,1.5,1.7,1.7,1.7s.5-.2.8-1.6-1.2-1.9-.7-3.3a4.83,4.83,0,0,1,1.8,1.5c.4.8,1.3-1.4,1.4-2.1a21.71,21.71,0,0,1-1-2.1c-.4-.6-1-.8-1-1s.5-.4,2.3-2.4a6.12,6.12,0,0,0,1.5-4.4c-1-1-1.9.4-2.8,0s-.4-3.1-.7-4.1c0,0-1.1,1.8-1.4,1.6s.1-1,.3-1.9S33,27.1,33,27.1s-.3,1.8-1,1.7-.4-1.8-.4-1.8-1.2-.7-1.5.8c-.3,1.7-1.1.3-1.6-.5-.6.3-.3,2.3-.3,3s-1.2-.6-1.8-.9c.2.6-.5,1.5-.5,2.2s-2.3-.4-2.8.1a11.82,11.82,0,0,0,.1,3.7c.6,1.6,1.5,2.3,1.5,3.3s-1.4,1.3-3.9,2.9C21.9,41.8,22,44.9,22.9,44.2Zm8.5-12.8c.5.6,1.5,1.4,2.3.7.3.1.5.2.1.7s-.4,1.6-1.2,1.5c-1.4-.1-.8-2.1-1.3-2.6ZM30,31.2l.2.4c-.4.1-.5,2.3-1.5,2.3-1.2,0-.3-1.5-1.2-1.8A5.32,5.32,0,0,0,30,31.2Zm-5.6,3.1a1.23,1.23,0,0,1,1.2-1.4c.7,0,.7,2.2,1,2.7s1.3.3,1.5.6c-.3.5-1.2,1-1.2,1.7a.88.88,0,0,0,.9.9c.4,0,2.1-.5,2.1-1.5,0-.5-.4-.8-.6-1.1s-.1-.8-.3-.9a18.13,18.13,0,0,1,1.9-.3c.5,0,.6.3.6.8s-1,.8-1,1.2,1.2,1.6,1.6,1.6,1.3-.3,1.3-1-.4-1.4,0-1.8c.2-.2.7.2.7.2.8-.8,1.2-2.3,2.8-2.5,1.5,2.7-1.6,3.7-1.6,3.7l-1.2-.5c.5,1.5-.8,2.1-.8,2.7.1,1.7-.2,2.3-.9,2.8-.4-.1-1.2-.2-1.3.2.8,1.4-1.6,2.9-1.3,3.6a23.2,23.2,0,0,1-1.4-2.3c-.3-.3.2-.8-.1-1.6-.2-.5-1.2.1-1.3-.7s.1-2.5-.8-3C26.3,36.9,24.4,35.9,24.4,34.3Zm25.4,6c0,1.2.6,2.8,2.4,2.8,2.1,0,2.2-1,3.3-1s1.7.9,1.7,2-.6,2.4-3.4,2.4c-5,0-6.3-1.4-12.3-1.4-5.6,0-5.2,2.2-8.8,5.9s-6.5,6.3-6.5,6.3l.2.6c-1.7,1.8-2.6,10.7-3.5,13.8s-5.7,4.4-5.7,4.4l-1.1,6,2.3-2a12.54,12.54,0,0,1-.2-1.7c-.1-1.3,3.6-4,5.3-5.1-.3,1.7-4.3,4.9-4.3,4.9a7.61,7.61,0,0,1,.4,2.3,20.29,20.29,0,0,0,.9,3.5l.2-.4a6.34,6.34,0,0,1,.4-1.9c.6-1.2,3.6-5.2,3.6-5.2l2,.3c1-1.6-.4-3.1-.7-4.1.8-.8,1.2-.4,2.2.5.7-1.7.1-1.9-.5-3.3s.5-1.1,2-.3c.6-.9.4-1.7-.4-3.7s1-1,1.9-.4c.7-1,.4-1.2-.4-3.3s.4-1.7,1.8-.7c.9-2.3.1-1.9-.4-3.4s.9-1.4,2-.4c1-.9.2-1.3.2-3.7,0-1.7,2-5.1,5.6-6.4,1.2,1.2-1.6,1.4-1.6,2.8,0,.8.6-.9,3.4-.9s3,1.4,3.7,1.4.1-2,.1-2c3.3,0,2.2,3.3,2.2,7.3s5.6,7.9,5.7,10.1c-2,1.2-2.5,6.3-4.4,9.1-1,1.1-2.3,1.2-3.5,1.8l-1.2,5.1A9.51,9.51,0,0,1,48,80.5c-1.2-2.5.4-3.1,1-3.7s3.4-4.1,3.4-4.1l.4.4S51.4,77,49.2,78c-.6,1.2,1.4,4.5,2,5.3a2,2,0,0,1,.5-.5s.2-4.4.9-5.1c.8-.9,1-.8,2.5-.2.7-.7.3-2.4-.3-3.5.7-1.2,1.7,1.2,2,.8,1.2-1.6-1-2.8-.3-4.3,0,0,1.2,1.1,1.5.9s.1-1.1-.1-1.9c-1.5-3.6.8-1.2,1-1.4.5-.3-.1-2.6-.7-3.2-.4,1-2.5,5-3.7,7.7-.2.5-1.3.7.2-4.1,1.8-5.6,3.8-4.7,4.7-4.4-.1-2.6-2.7-2.8-2.9-4.6-2.6-1.1-.4-10-5.8-12.2l6.7-.5c-1.3,1.3-3.8.9-3.8.9s0,.8,2,.8,3.7-1.9,3.7-4.4c0-1.9-2.3-5.9-4.4-5.9-1.8,0-2.5,2.8-3,2.5-1.1-.5-.3-1,.1-1.7,1.4-2.4,3.6-1.8,3.7-3.8,0-3.6-4.7-3.8-5.3-3.1s2.2,0,2.1,2.3c0,.4,1.4-1.2,1.4-1.1C53.6,35.5,49.8,36.8,49.8,40.3Zm-5.2-1.4c.5.9,4.8.7,4.8-3.3,0-2.1-1.8-2.5-1.8-3.1,0-1.5,7.8-2,7.8-5.8a5.56,5.56,0,0,0-.6-2.9s.1,3-.8,3c-1.4,0-.1-1.7-.1-2.6,0-3.2-3.4-2.5-3.4-2.5s2,.1,2,3.3c0,4.1-5.9,6.5-6.4,6.1s1.6-1.8,1.6-4.1c0-1.1-.4-3.4-2.8-3.4-2.8,0-4.6,1.9-3.5,1.7s3.3.6,3.3,2.5c0,3.2-4.2,4-4.2,8,0,5.1,5.1,6.3,6.7,6.3a5.54,5.54,0,0,0,2-.2,2.8,2.8,0,0,1-.3-1.6,6.77,6.77,0,0,1-1.9.3c-3.9,0-4.3-3-4.3-4s1-3,2.6-2.8C48.7,34.1,46.7,37.7,44.6,38.9ZM40.8,72.1c.5-.7,1.3,1.6,1.3,1.6,2-1.8-.2-2.8.4-3.3.9-.7,2.3.4,2.3.4,1.1-.9-.6-1.9-.1-2.5.9-1.2,1.2-.1,1.9-.4s1.4-.9.7-1.8-3-5.1-1-8.1a2.53,2.53,0,0,0-1.6,1.5c-.3,1.1.8,6.6.8,7.4L39.6,72s-.4-.4.4-1.5a57.73,57.73,0,0,1,4.6-4.1c-.9-1.2.4-4.3-1.4-5.5-.5-.2-1.9-.6-.7-1.5.8-.6,2.1-.3,2.1-2.9a2.67,2.67,0,0,0-2.4-2.8c.3-.8,2.4-.6,3-1.4-1.1-.5-1.1-.6-1.9-.6s-3.1,1.2-3.1,4.7,2.6,8.2,2.2,8.6-3.2,2.2-3.8,3.6S34.8,72,34.8,72l-3,5,2-1.2s.7-2.4,1.9-3.1c1.7-1,3.3-2.8,3.5-2.5s-1.3,2.4-3,3.3c-.5,1-1.7,4.7-1.6,5.5,0,0,3.6-4.3,4.6-4.8s1.4.9,1.4.9C41.9,74,40.3,72.7,40.8,72.1Zm-6.9-1.2c.7-.6,2.1-.8,2.9-1.6l-3.4.8-2,3.1,1.6-.7A3.75,3.75,0,0,1,33.9,70.9ZM17.1,75.4a21.07,21.07,0,0,0,3.5-1.3c-1.6.2-4.3.2-4.3.2l-2.4,4.9,2.3-1.3S16.2,75.7,17.1,75.4Zm-3.4-31c0,1.8,2.2,2.5,2.4,3.4s-1.8-.6-1.7-.3c.3,2.4,2.3,2.7,3,4,.4.8-1.9-.3-1.8-.1.5,2.8,3.5,1.8,4,3.6.3,1-1.9-.6-1.9.3,0,.6,1.1,3.8,1.8,4a14.68,14.68,0,0,0,3.7-1c.9-.4,2.8-.7,3-1.6-1-1.6-3.7-5.3-4.1-8.7-2.1-2.2-4.2-5.5-4.2-8.2a15.94,15.94,0,0,1,.8-4.9l-3-5.6-.6,2.5s2.8,2.6,2.7,3.5-.8,3.6-.8,3.6c-.5.7-.4-3.5-.4-3.5l-3.2-4.1s-.1,2.7,0,3.5c.3,1.6,1.8,2.3,1.8,3.2a4.82,4.82,0,0,1-1.9,2.9c-.1,1.2,2.1,2.3,2.2,3.3C14.9,45,13.7,43.9,13.7,44.4Zm5.2-6.8c.5-.8,2.2-1.1,2.1-1.9s-2.1-5.3-2.1-6.4l-1.3,2.4s1.9,2.7,1.9,3.6S18.8,36.4,18.9,37.6ZM48.5,75c-2.1.4-4.8,1-4.8,1l-2.4,3.9,2.8-.6c.3-1.3.4-2.1,1-2.6C46.3,75.7,48.1,75.6,48.5,75Z"/><path d="M144.4,129.7c-.1,1.4-1,.2-1,.2a8.24,8.24,0,0,1-2.2-5.3c.6-.4,1-1.8,1.2-1.9s2.1-1,2.1-1.9-2.6-6.5-2.6-8.7l-2.2,3-1.7-2.9-1.3,3.5-1.4-1.6s-.7,5.1-.4,6c.7,2.5,1.8,2.2,1.8,3.1,0,1.3-2.4,2.3-2.4,2.3.3.7,1.6,7.2,2.6,10.3,1.1,3.6,1.9,3.9,2.6,5.4.6,1.2.9,4,2.3,4s5.5-1.5,5.5-1.5c-1.3,1.3-1.9,14.4-4.1,14.4-1.5,0-5.2.1-5.2.1a30.19,30.19,0,0,0-2.9,7.7l3.2-1.9-1,5.1,3.9-2.9,1.6,5,1.4-2.3a3.06,3.06,0,0,1,.8-2.7c1-1.4,2.6-3.7,2.6-3.7l2,.5a4.39,4.39,0,0,0,.8-3l.6-.1.6-1.4.9-2.4c.3-.7,3.7-9.5,4.7-12.2a6.39,6.39,0,0,0,.6-2.8,7.45,7.45,0,0,1-.2-1.8,6.27,6.27,0,0,1,2-3.6v.1a1.12,1.12,0,0,0,1,1.2,1.49,1.49,0,0,0,.8-.3,3.78,3.78,0,0,1,2.5-.8h.5c-1.4.5-3.1,2.3-3.1,5.5a19.39,19.39,0,0,0,1.6,6.6c.2.5.4,1.2.5,1.5l-.3.3c-1.4,1.1-2.9,2.3-3.3,3.4v.1l-4.4.6-3.3,5.9,2.1-.7-2,4.4,4-1.6s-.9,3,0,4.2c.1-.1,1.4-1,1.4-1a10.69,10.69,0,0,1,1.1-2l2.9-2.9.6,1.5c3-1.5,8.5-8.5,8.7-9.8,0-1.2-2.2-3.1-2.2-5.9a3.67,3.67,0,0,1,.6-2.3c0,2,4.8,6.5,5.2,7.8-1.1.6-3.2,6.8-3.4,7.7-.9,0-5.4,1-5.4,1a15,15,0,0,0-3.3,6.1l3.6-.7-.6,4.3,1.6-.3s1.5-2.5,4-2.7l2.3,3.7,1.5-1.7s.2-4.8,1-5.4l1.8.7c4.9-3.6,5.6-16.5,4.9-16.9-.4-.3-.6.3-1.9-1.4-2.1-2.6-1.8-8.6-3.7-10.7,0,0,.2-.2,1.1-.2a5.24,5.24,0,0,0,4.4-5.4,7.77,7.77,0,0,0-4.2-7,4.07,4.07,0,0,0,.5-2c0-3.8-4.2-3.8-4.3-4.4,2-.4,4.2-2.8,4.3-4.5.5-4.9-5-7.6-7.3-5.3.7.6,2.5,1.4,2.5,3.2,0,3.1-3.4,4.7-3.4,4.7a6.68,6.68,0,0,0,.6-2.7,4,4,0,0,0-4.2-4.1,5.2,5.2,0,0,0-5.1,3.6c1,0,4.3-.3,4.3,1.6,0,2.5-4.2,3.9-4.2,8s3.6,7,7.6,7.3a16.36,16.36,0,0,0,2,.1c.8,0,1.3.9,2.9.9,2.1,0,2.6-1,3.2-1s.7.7.7,1.1.1,1.4-2.4,1.4c-2.7,0-7.6-1.4-12-1.4-3.5,0-3.9.1-4.1.3a6.11,6.11,0,0,0,.8-2.4c-.8-.4-1.5-2.7-1.9-2.7,3.7-3.4,3.2-6.3,3.2-7-.3-.8-.8-1-1.7-1a2.36,2.36,0,0,0-1.4.4,15.8,15.8,0,0,0-.8-4.3c-1.2-1.8-7.1-3-9.4.4l-1.2,2.8a3,3,0,0,0-2.9.2s.1.9.1,1.6-.1,1.5-.1,2.3,1.6,3.6,1.6,3.6c-.9,1.3-4,2.8-4,2.8A10.42,10.42,0,0,1,144.4,129.7Z"/><path class="cls-2" d="M145.5,129c.4-.3,1.5-2,2.5-2-.1.6-1.7,1.9-2.2,3s.3,2.1.8,2.9c-.1-.7,1.6-1.8,2.1-2.4s1-.4.6.3c-.4,1-1.8,2-1.8,3.4,0,.8.6,1.3,1.3,1.7,0,0,.3-2.5,1.3-1.8.4.3-1.7,4.2,0,5.7.3-1.1,2.8-3,2.8-3.6s-.9-2.3,0-2.3c.5,0,1,1.6,1.3,1.6a1.06,1.06,0,0,0,1-1c0-.6-1.6-3.2-.6-3.2.4,0,1.5,1.7,1.7,1.7s.5-.2.8-1.6-1.2-1.9-.7-3.3a4.83,4.83,0,0,1,1.8,1.5c.4.8,1.3-1.4,1.4-2.1a21.72,21.72,0,0,1-1-2.1c-.4-.6-1-.8-1-1s.5-.4,2.3-2.4a6.12,6.12,0,0,0,1.5-4.4c-1-1-1.9.4-2.8,0s-.4-3.1-.7-4.1c0,0-1.1,1.8-1.4,1.6s.1-1,.3-1.9-1.2-1.3-1.2-1.3-.3,1.8-1,1.7-.4-1.8-.4-1.8-1.2-.7-1.5.8c-.3,1.7-1.1.3-1.6-.5-.6.3-.3,2.3-.3,3s-1.2-.6-1.8-.9c.2.6-.5,1.5-.5,2.2s-2.3-.4-2.8.1a11.82,11.82,0,0,0,.1,3.7c.6,1.6,1.5,2.3,1.5,3.3s-1.4,1.3-3.9,2.9C144.5,126.6,144.5,129.8,145.5,129Zm8.5-12.8c.5.6,1.5,1.4,2.3.7.3.1.5.2.1.7s-.4,1.6-1.2,1.5c-1.4-.1-.8-2.1-1.3-2.6Zm-1.4-.1.2.4c-.4.1-.5,2.3-1.5,2.3-1.2,0-.3-1.5-1.2-1.8C150,116.9,151.8,116.7,152.6,116.1Zm-5.6,3.1a1.23,1.23,0,0,1,1.2-1.4c.7,0,.7,2.2,1,2.7s1.3.3,1.5.6c-.3.5-1.2,1-1.2,1.7a.88.88,0,0,0,.9.9c.4,0,2.1-.5,2.1-1.5,0-.5-.4-.8-.6-1.1s-.1-.8-.3-.9a18.13,18.13,0,0,1,1.9-.3c.5,0,.6.3.6.8s-1,.8-1,1.2,1.2,1.6,1.6,1.6,1.3-.3,1.3-1-.4-1.4,0-1.8c.2-.2.7.2.7.2.8-.8,1.2-2.3,2.8-2.5,1.5,2.7-1.6,3.7-1.6,3.7l-1.2-.5c.5,1.5-.8,2.1-.8,2.7.1,1.7-.2,2.3-.9,2.8-.4-.1-1.2-.2-1.3.2.8,1.4-1.6,2.9-1.3,3.6a23.21,23.21,0,0,1-1.4-2.3c-.3-.3.2-.8-.1-1.6-.2-.5-1.2.1-1.3-.7s.1-2.5-.8-3C148.8,121.8,147,120.7,147,119.2Zm25.4,6c0,1.2.6,2.8,2.4,2.8,2.1,0,2.1-1,3.3-1s1.7.9,1.7,2-.6,2.4-3.4,2.4c-5,0-6.3-1.4-12.3-1.4-5.7,0-5.2,2.2-8.8,5.9s-6.5,6.3-6.5,6.3l.2.6c-1.7,1.8-2.6,10.7-3.5,13.8s-5.7,4.4-5.7,4.4l-1.1,6,2.3-2a12.54,12.54,0,0,1-.2-1.7c-.1-1.3,3.5-4,5.3-5.1-.3,1.7-4.3,4.9-4.3,4.9a7.61,7.61,0,0,1,.4,2.3,20.29,20.29,0,0,0,.9,3.5l.2-.4a6.34,6.34,0,0,1,.4-1.9c.6-1.2,3.6-5.2,3.6-5.2l2,.3c1-1.6-.4-3.1-.7-4.1.8-.8,1.2-.4,2.2.5.7-1.7.1-1.9-.5-3.3s.5-1.1,2-.3c.6-.9.4-1.7-.4-3.7s1-1,1.9-.4c.7-1,.4-1.2-.4-3.3s.4-1.7,1.8-.7c.9-2.3.1-1.9-.4-3.4s.9-1.4,2-.4c1-.9.2-1.3.2-3.7,0-1.7,2-5.1,5.6-6.4,1.2,1.2-1.6,1.4-1.6,2.8,0,.8.6-.9,3.4-.9s3,1.4,3.7,1.4.1-2,.1-2c3.3,0,2.2,3.3,2.2,7.3s5.6,7.9,5.7,10.1c-2,1.2-2.6,6.3-4.4,9.1-1,1.1-2.3,1.2-3.5,1.8l-1.2,5.1a9.51,9.51,0,0,1,3.6-1.8c-1.2-2.5.4-3.1,1-3.7s3.4-4.1,3.4-4.1l.4.4s-1.4,3.9-3.6,4.9c-.6,1.2,1.4,4.5,2,5.3a2,2,0,0,1,.5-.5s.2-4.4.9-5.1c.8-.9,1-.8,2.5-.2.6-.7.3-2.4-.3-3.5.7-1.2,1.7,1.2,2,.8,1.2-1.6-1.1-2.8-.3-4.3,0,0,1.2,1.1,1.5.9s.1-1.1-.1-1.9c-1.5-3.6.8-1.2,1-1.4.5-.3-.1-2.6-.7-3.2-.4,1-2.5,5-3.7,7.7-.2.5-1.3.7.2-4.1,1.8-5.6,3.8-4.7,4.7-4.4-.1-2.6-2.7-2.8-2.9-4.6-2.6-1.1-.4-10-5.8-12.2l6.7-.5c-1.3,1.3-3.8.9-3.8.9s0,.8,2,.8,3.7-1.9,3.7-4.4c0-1.9-2.3-5.9-4.4-5.9-1.8,0-2.5,2.8-3,2.5-1.1-.5-.3-1,.1-1.7,1.4-2.4,3.6-1.8,3.7-3.8,0-3.6-4.7-3.8-5.3-3.1s2.2,0,2.1,2.3c0,.4,1.4-1.2,1.4-1.1C176.1,120.3,172.4,121.6,172.4,125.2Zm-5.2-1.5c.5.9,4.8.7,4.8-3.3,0-2.1-1.8-2.5-1.8-3.1,0-1.4,7.8-2,7.8-5.8a5.56,5.56,0,0,0-.6-2.9s.1,3-.8,3c-1.4,0-.1-1.7-.1-2.6,0-3.2-3.4-2.5-3.4-2.5s2,.1,2,3.3c0,4.1-5.9,6.5-6.4,6.1s1.6-1.8,1.6-4.1c0-1.1-.4-3.4-2.8-3.4-2.8,0-4.6,1.9-3.5,1.7s3.3.6,3.3,2.5c0,3.2-4.2,4-4.2,8,0,5.1,5.1,6.3,6.7,6.3a5.54,5.54,0,0,0,2-.2,2.8,2.8,0,0,1-.3-1.6,6.77,6.77,0,0,1-1.9.3c-3.9,0-4.4-3-4.4-4s1-3,2.6-2.8C171.3,118.9,169.3,122.6,167.2,123.7Zm-3.8,33.2c.5-.7,1.3,1.6,1.3,1.6,2-1.8-.2-2.8.4-3.3.9-.7,2.3.4,2.3.4,1.1-.9-.6-1.9-.1-2.5.9-1.2,1.2-.1,1.9-.4s1.4-.9.7-1.8-3-5.1-1-8.1a2.53,2.53,0,0,0-1.6,1.5c-.3,1.1.8,6.6.8,7.4l-5.9,5.1s-.4-.4.4-1.4a57.73,57.73,0,0,1,4.6-4.1c-.9-1.2.4-4.3-1.4-5.5-.5-.2-1.9-.6-.7-1.5.8-.6,2.1-.3,2.1-2.9a2.67,2.67,0,0,0-2.4-2.8c.3-.8,2.4-.6,3-1.4-1.1-.5-1.1-.6-1.9-.6s-3.1,1.2-3.1,4.7,2.6,8.2,2.2,8.6-3.2,2.2-3.8,3.6-3.8,3.4-3.8,3.4l-3,5,2-1.2s.7-2.4,1.9-3.1c1.7-1,3.3-2.8,3.5-2.5s-1.3,2.4-3,3.3c-.5,1-1.7,4.7-1.6,5.5,0,0,3.6-4.3,4.6-4.8s1.4.9,1.4.9C164.4,158.9,162.9,157.6,163.4,156.9Zm-6.9-1.2c.7-.6,2.1-.8,2.9-1.6l-3.4.8-2,3.1,1.6-.7A3.64,3.64,0,0,1,156.5,155.7Zm-16.8,4.5a21.07,21.07,0,0,0,3.5-1.3c-1.6.2-4.3.2-4.3.2l-2.4,4.9,2.3-1.3C138.8,162.8,138.8,160.5,139.7,160.2Zm-3.5-31c0,1.8,2.2,2.5,2.4,3.4s-1.8-.6-1.7-.3c.3,2.4,2.3,2.7,3,4,.4.8-1.9-.3-1.8-.1.5,2.8,3.5,1.8,4,3.6.3,1-1.9-.6-1.9.3,0,.6,1.1,3.8,1.8,4a14.68,14.68,0,0,0,3.7-1c.9-.4,2.8-.7,3-1.6-1-1.6-3.7-5.3-4.1-8.7-2.1-2.2-4.2-5.5-4.2-8.2a15.94,15.94,0,0,1,.8-4.9l-3-5.6-.6,2.5s2.8,2.6,2.7,3.5-.8,3.6-.8,3.6c-.5.7-.4-3.5-.4-3.5l-3.2-4.1s-.1,2.7,0,3.5c.3,1.6,1.8,2.3,1.8,3.2a4.82,4.82,0,0,1-1.9,2.9c-.1,1.2,2.1,2.3,2.2,3.3C137.5,129.9,136.2,128.8,136.2,129.2Zm5.3-6.8c.4-.8,2.2-1.1,2.1-1.9s-2.1-5.3-2.1-6.4l-1.3,2.4s1.9,2.7,1.9,3.6S141.4,121.2,141.5,122.4ZM171,159.9c-2.1.4-4.8,1-4.8,1l-2.4,3.9,2.8-.6c.3-1.3.4-2.1,1-2.6C168.8,160.5,170.7,160.5,171,159.9Z"/><path d="M99.5,33c-.8.2-4.8-.8-5.2-2.5-.7-2.5,2.5-4.4,2.5-8.8,0-4.1-4.2-4.9-5.4-4.9-1.4,0-4.9.6-4.9,3.9a3.48,3.48,0,0,0,3.1,3.6c-1.7,5.4.2,9.4,2.5,11,3.1,2.3,6.7,1,6.7,2.2-.5.1-3,3.7-4.1,5-.7,1-1.2,1.6-1.2,2.1,0,1,3.9.3,6.4-.2,0,0-2.1,2.4-4.6,2.6h-.6a3.33,3.33,0,0,1-1.5-.5c-.5-.5-1.5-1.6-.6-4a5.65,5.65,0,0,1,.9-1.7c.8-1.1-7.6.5-6.7,7.8.4,3,2,2.7.8,3.3a6.87,6.87,0,0,0-1,1.8s-.4-3.2-.7-6.5c-.3-2.4-.6-2.8-.8-5.1-.1-1.3.4-2.3,1.7-2.3,2-.1,3.5.4,2.9-3.9C88.2,24,76.8,20.8,76.6,21a4.65,4.65,0,0,0,1.2,2.6,8.68,8.68,0,0,1,2,4.8,48,48,0,0,0-7.6-2.7v1.1c.6,1.3,3.4,6.1,3.8,9.1a11.64,11.64,0,0,0-2.8-2.8c.3,1.2.4,3.2.4,8.5.1,8.4,0,19.7,3.3,26.1.3.7.4,6.5,3,6.5s2.6.3,2.6.3,1.2,1.2,1.9,1.1c0,0-3.3,9.7-6.1,19.3-2.6.8-3.9-1.4-4.9-1.5s-1.7,5.7,1.1,11.6a3.31,3.31,0,0,0-1.6,3,14.85,14.85,0,0,0,5.9,10.8s.5.3.2-.8.5-4.6.9-5.2c3,2.6,7.1.7,7.1.7l-.8-1.3s-.8.5-.4-6.2c.6.2.7,1.7.8,1.7.4.1.7.1.8-.1a47.45,47.45,0,0,0,2.3-5.4c.2-.7,1.1-.4,2.6-2.4a7,7,0,0,0,.9-2.3c2.4-.8,2.5-4.3,2.5-4.3.8,0,1.8-3,1.7-5.4.3-1,.8-1.2,1-1.9.5.8,5.1,3.1,5.1,10.3,0,5.2-2.3,5.2-1.6,7.3.1.2-1.1,1.2-4.2.9-2-.2-4.1-1.9-4.8-2.1-1.9-.3-1.8.7-2.4,2.1s-3.1,17.7,2.2,28.6c-1.9-.4-7.9-.2-8.7-2-.6-1.4,1.6-3.3,1.6-3.3s-.5-2.5-5.2-2a9.5,9.5,0,0,0-8,6.1l1.2.2a4.5,4.5,0,0,0-1.8,2.8c-.1.8-.1,2-.1,2l1.2-.5s-.1.8.8,4.9c.7,3.6,2.1,4.5,2.1,4.5s.1-.7.2-1.1l.7-4.1c.2-.7,3.6-.2,3.6-.2a11.3,11.3,0,0,0-2,.9h0a6.12,6.12,0,0,0-.8,2.6h0a15.76,15.76,0,0,1,4,.6c1,.3,1.5,1,2.7,1.4.4.1,1.1.1,1.5.2,1.2.3,2.4.7,3.7,1,.3.1.8-.1,1.2,0a19,19,0,0,0,4.7.8c1.2,0,1.9.6,3.1.7,3.4.2,4.6-1.5,5.9-1-.1-.8,1.4-2-2-4.7,0-1.6,2-2.3,2-2.3.4-3.2-3.6-7.9-3.6-7.9s-.5-2.8-.8-5.5a35.21,35.21,0,0,1,1.2-11.8l1.1-.3s.2.2-.2,1.2c-.3.6-1.9,5.9.3,13,2,6.3,7.5,9.5,7.5,13l-1.4-.1c-3.2,3.2-3.1,18.7-3.8,20.3-.5,0-1.1.3-1.5,0-1.5-1.1-2.4-2.3-3.3-2.9-.2-.1-.7-.7-1-.6a10.23,10.23,0,0,0-2.2,1.4c-4.3,2.3-4.5,8.9-3.3,12.6a19.87,19.87,0,0,0,1.6-2s.9,9.1,4.2,9.9l.4-.6s.2-5.9,1.4-5.4c.1.1,1,2.9,2,3.8,1.7,1.5,1.3,1.5,2.9,2.2a13.53,13.53,0,0,1,2.7.9,4.28,4.28,0,0,0-.3-1c.2-.6-1.1-1.8-.4-3.6,0,0,3.8-5.5,3.9-6.6a9.31,9.31,0,0,0,3.5,1.2l.6-1.1s-1-1.6-.4-2.3a21.75,21.75,0,0,0,3.1-6.5c.1-.3-.1-1,0-1.3.4-1.5,1.1-2.8,1.5-4.4.1-.5.7-1.3.8-1.8s-.1-1.2,0-1.6c.8-4,1-7.4.2-7.8a3.37,3.37,0,0,0,1.6-.8,1.44,1.44,0,0,1-1.2-1.4c0-1.2,2-2.7.2-6.3a3.59,3.59,0,0,1-2.6.9c-1.8,0-3.4-6.3-3.9-8.5l.4-.4a6.1,6.1,0,0,0,3.2.9c2.2,0,5.2-.9,5.2-7.7,0-3.9-2.3-12.7-2.3-12.7,3.7-2,2.2-12,1.8-13.2s-2.9-9.8-.8-15.7c-3,1.7-5.2,12.1-5.2,12.1-1.1-5.2,3.9-10.3,4.1-18.8.2-5-3.7-8.9-3.7-8.9s.7-2.6,2-2.6,1,4.3,1,4.3c2.1-.8,3-2.5,3-4.9s-1.6-5.4-5.9-5.4-6.5,4.5-6.5,8,2.6,9.7,2.6,9.7a49.52,49.52,0,0,0-1.6,7.8A48.61,48.61,0,0,0,113.7,98c2.4,7,6.1,16.4,6.1,23.1a3.22,3.22,0,0,1-.8,2.4c-2.2-.6-5.6-15-6.8-27.4a119.43,119.43,0,0,1-1.6-13.6l-.6-4.7,1.1.3c.1-.2.1-.3.2-.5a69.94,69.94,0,0,1-.8-7.4c0-2.5.3-14.1,1.1-17.4,1,1.7,6.1,2,6.1,2-3-6.1-1.4-13.2-1.5-13.9,2.8.6,4.3-1.3,4.9-1.5-3.2-2-2.8-5.7-3.3-5.9a8.25,8.25,0,0,0,2.3-1.4,10.39,10.39,0,0,0,1.5-4.7c0-1.5-.4-3.7-1.4-4.1a4.16,4.16,0,0,0,1.3-3.3c1.4-1.4,1.7-5.9,2-6.5-1.1,1-5.4,4.8-10.1,4.8-1.7,0-2.3-.3-3.8-.3a7.16,7.16,0,0,0-5.1,2.2,24.6,24.6,0,0,0-6.9,1.2C97.5,22.5,97.4,29.4,99.5,33Z"/><path class="cls-3" d="M90.1,23.4s.9-1,.3-1c-1.3,0-1.7-1.7-.7-1.6s.9-.1.2-.8,0-1.1,1.2-1.1a1.65,1.65,0,0,1,1.7,1.6c0,1.1-4,5.6-2.5,10.3,1.9,5.8,6.9,5.1,9.5,5.6,1.6.3,5.1,1.3,4.9,1-.3-.7-4.9-1.5-4.1-1.6.2,0,4.5,1,4.4.8-.5-.6-3.4-1.7-3.9-1.9-1.5-.6-5.8-2.2-6.3-2s5.1,2,5,2.4-.9.4-2.9-.3c-2.3-.7-4.6-2.7-4.6-5.6a11,11,0,0,1,.5-3.8c.6-4.1.5,3.2.9,2.7.3-.3.4-1.8.8-2.7.4-1.2,1.1-1.6,1.1-3.4,0-3.2-3-4.2-4.5-4.2-1,0-3.5.6-3.3,3.1S90.1,23.4,90.1,23.4ZM88,36.9c0,.1-1.4.7-1.5.1-.1-.2.7-.6.8-.8.1-.8-.2-1.7-.3-1.6-.9,1.3-2.3.5-2.4,5.2.7-2.3,3.5-1.4,3.9-1.9s-.4-4.5-.9-5.6C87.6,33.1,88.1,36.6,88,36.9Zm12.1-3.6c1.9.2,3.5.7,3.6.3-.4-1.1-.9-1.4-1.4-1.5C100.9,31.8,101,33.1,100.1,33.3Zm-23,6.3c-.4-1-2.1-2.1-2.1-2.9-.7,5.5,2.5,7.5,2.2,8-.6.9-2.4-1.8-2.4-1.8-1.1,4.3,2.8,7.5,2.8,7.5-.1,1.5-2.5-.7-2.5-.7-1.2,3.6,3.1,7.6,3.1,7.6,0,.9-3.1-1.3-3.1-1.3,0,4.2,2.9,6.3,2.9,6.8,0,1-1.5-.1-1.5-.1a8.35,8.35,0,0,0,3.7,6c-.1.8-2.3-.4-2.3-.4.4.8.4,4.2,1.9,4.5s2.9.1,3.4.4,1.7,1.9,2,.1a10.78,10.78,0,0,1-3-7.7c0-4.2.8-6.4,3.7-8.6-.5-3-1-8.2-1.7-10.8s-.6-4.8-.4-10.4c0-1.7,3.8-4.1,3.8-4.1A14.69,14.69,0,0,0,81.3,24a26.28,26.28,0,0,1,5,6.3s-1.2,1.5-1.6,1.2c-.9-.9.9-1.2-.2-2.6a80.26,80.26,0,0,0-5.7-5.8c.1.8,3.5,5.4,2.3,6.9A8.51,8.51,0,0,1,83,32.7c-.4.6-.8,8.7-1.1,9.7-.6-3,0-10.2,0-10.2-2.6-2.6-2.4-2-4.9-3.3-.3-.1,3.4,3,3.1,2.9s-.2,6.3-.9,4.6c-.2-.6-.8-4.7-.8-4.7a48.51,48.51,0,0,0-4.7-4.3c-.1,1.6,3,5.7,4,12.1C77.7,39.7,77.5,40.6,77.1,39.6ZM87.3,54.4c0,.7,2.3,1.6,9.2-2.2s8.7-9.3,8.5-9.5-1.2,2-2.7,3.6S99.2,49,99,48.9s1.4-1.5,2.6-3.1c1.1-1.4,1.7-3.1,1.5-3.3s-3.9,5.9-8.6,5.9a4,4,0,0,1-3-6.3c-.4-.4-4.1.8-4.1,6,0,3.3,2.2,3,2.2,3.7C88.6,52.3,87.3,53.7,87.3,54.4ZM99.1,28.8c.6,3.1,6.5.1,6.9,6.7.2,3.3-2.7,4.8-5.1,4.7-2.1,0-2.4-.5-2.4-.5a12,12,0,0,1-2,2.3A9,9,0,0,0,95,43.7s.4.5,2.5.1c3-.6,4.4-2.6,7.6-2.6,1,0,1.1,1.6,1.9,1.6-.1-.5.6-1.4,1-2a1.43,1.43,0,0,0-.2-2.2c.2-.9,1.4-.7,1.4-1.2a7.49,7.49,0,0,1-2.8-5.5,1.35,1.35,0,0,1,.9-1.2c.2,0,.8.1.8.6s-.8.7-.8,2c0,2.7,3.1,3.5,3.1,4.3s-1.4,1-1.4,1l-.1,4.3c-1.4,3.9-4.1,7.7-5.2,8.6.6-.5,3.4-6.4,3.1-6.6s-2.7,5-4.8,6.1c.3-.3,4.2-6.5,3.7-6.8-.2-.2-2.7,4.1-6.5,7.3a25.14,25.14,0,0,1-10.8,4.6c1.6,2.1,5.9.9,5.9,1.7,0,1.1-1.7,2.2-1.7,4.9,0,4.1,1.8,8.1-.2,11.6a18,18,0,0,0,8.5-11.4,11.89,11.89,0,0,1-5.8,1.5c-1.1,0-1.7-.6-1.7-.9a49.57,49.57,0,0,0,11.5-11.2c.5-.2,2.3-3.2,3.5-5.8s2.1-3.6,1.9-3.1a32.58,32.58,0,0,1-5.7,11.2,64.89,64.89,0,0,1-8.7,8.5s4.1.2,5.8-1.6c.5-.1.9.1.9.5s-.8.4-.8,1.7c.1,6.9,7.4,12.3,8.4,12.5a21.73,21.73,0,0,1-1.2-7.1A167.79,167.79,0,0,1,110.5,52c.2-1.1-.5-2.1-.3-2.7s.2-.3.5-.3c.7,0,.6,3.4,4.8,4.2-2.3-5.6-.8-11.8-.8-12.1,0-1-.8-1.4-.4-2.3a5.79,5.79,0,0,0,2.6.7,3.26,3.26,0,0,0,2-.5,7.07,7.07,0,0,1-2.4-5.1c0-.4-.7-.9-.7-1.2a.43.43,0,0,1,.2-.4c.8.5,1.9-.4,2.6-.4,0-.8,1.4-1.7,1.5-4.7s-1.1-3.4-2.1-3.4c-.8,0-1.3.4-1.6-.1.6-.5,3.7-.9,3.7-3.5-1.9,1.7-4.9,1-6.8,1.9a.53.53,0,0,1-.4-.5c1.7-1.4,7.5.6,8.5-5-1.4,1-4.8,3.1-7.9,3.1-1,0-2.5-.3-3.9-.3-2.8,0-4.2,1.4-4.4,2.1a24.88,24.88,0,0,0-5.9.7C99.6,23,98.7,26.6,99.1,28.8Zm18.1-4c.6,0,.9.3,1.2.1-.2.5-1.9,2.3-3.1,2.3a.43.43,0,0,1-.4-.2A4.1,4.1,0,0,1,117.2,24.8Zm-.5,2.3c.4.2,1.2,0,.8.6s-.8,1.4-.8,1.4.3.3.5.2,1.1.2,1.4,0c-.2.5-.5,2.4-2.6,2.4a1.5,1.5,0,0,1-1.5-1.5C114.5,28.9,116.7,27.4,116.7,27.1ZM107,22.3c2.7,0,3.5,4,6,3.4-.4.9-1.9.5-2.4.8a4.34,4.34,0,0,1-2.8,1.1c-1.5,0-2.2-.6-3.7-.6a2.41,2.41,0,0,0-1.4.5,1.33,1.33,0,0,1,1.5-1.1c1.4,0,2.2.3,3.6.3a3.1,3.1,0,0,0,2.2-.9c-1.1-.2-1.9-2.6-3.1-2.6a2.43,2.43,0,0,0-1.3.7c.2.2,1-.3,1.4-.3,1.3,0,1.2,2.1,1.4,2.2a4.46,4.46,0,0,1-1.6.3,8.94,8.94,0,0,1-2.3-.5c.1-.1.1-.4.6-.4s.9.2.9-.2-.8-.4-.7-.6c-.4.3-1.1,1.3-1.6,1.3s-.6-.3-.6-.3C103.8,25.3,104.8,22.3,107,22.3Zm-5.6.9c.1-.4.6-.2.8-.4.2.9-1.2,1.5-1.4,1.9s-.2.8-.7.8-.4-.3-.4-.5.2-.6.2-.9a.69.69,0,0,0-.3-.5A3.46,3.46,0,0,1,101.4,23.2Zm1.3,15.7c-.9-.2-1.3-.7-2-.6s-1.2.6-1.6.7C100.6,39.2,101.4,39.9,102.7,38.9ZM75,104a36.11,36.11,0,0,0,1.7-4.6,5.67,5.67,0,0,1,.6-.9c.3-1.2.3-.8.7-2.5-1.7.5-4.1-1.1-4.1-1.1-.6.3,2.6,2,2.3,2.3C73.4,100.1,75,104,75,104Zm0,0a36.11,36.11,0,0,0,1.7-4.6,5.67,5.67,0,0,1,.6-.9c.3-1.2.3-.8.7-2.5-1.7.5-4.1-1.1-4.1-1.1-.6.3,2.6,2,2.3,2.3C73.4,100.1,75,104,75,104Zm24.1,63c-.4-.5-1-1.9-1.3-2s-2.6,3.6-1.6,8.2c.1.4.1-1.6.3-2.2C97,168.6,97.6,167.9,99.1,167Zm-4.9-2.6c.9-1.1,3.2-3.3,4.1-4.2l-2.1.9A9.87,9.87,0,0,0,94.2,164.4Zm9,8.8c-.5-.4-1.7-1.5-1.7-1.5s.4,5.3,2.4,6.6A9.37,9.37,0,0,1,103.2,173.2ZM77.9,99.8c-.9,2.8-2.1,5.8-4,7.3a8.92,8.92,0,0,1,1.1.2c.6-.4,2.3-3.4,2.8-4a16.52,16.52,0,0,1-2.1,4.7,39.85,39.85,0,0,0,2.2,7.7c0-1.5.4-4.1,1.1-4.2-1.1-1-1.2-3.1-2-3.3.9-1.9,2.4-6.2,2.4-7.2s.8-4,1.2-3.6-1.2,7.8-2,9.6l.9.4a43.34,43.34,0,0,1,1.9-5.7c.3,1.8-1,6.1-1,6.1,1.2,2.5,2.8,3.8,4.1,4-1.8-3.1,1.2-7.1.2-9.4.4-1,1.7.7,1.9,1.8a8.37,8.37,0,0,1,.2,1.4,9.36,9.36,0,0,0,.9-4c0-2.3-.7-3.4-.7-4.2.9,0,1.7,1.7,1.7,2.8,0,.8,2.4.4,2.9-3.3.3-2.2-2.2-3.7-2.2-3.7s3.6.4,3.5,2.4a3.42,3.42,0,0,0,.3-4.8c-1.7-2.4-1.5-2.6-.3-2a3.77,3.77,0,0,1,2,2.8c.5.4,1.5-1.6,1-3.7a8.74,8.74,0,0,0-2-3.8c1.1-1.2,1.9,1.4,2.8,1.5-.1-2.7,3.6-4.5,3.6-4.5.6-1.1,1-3.7,2-5.1,1.1-1.6,2.7-1.8,2.7-1-2.5.4-2.6,4.4-3,5.2.5-.1,1.8.4.9.9s-2.7.7-3.1,2.1c2-.4,3.6-1.2,3.6.1-1.9,1.2-4.2.6-4.2,2,0,.6,1.7,1.1,1.7,1.1a16.59,16.59,0,0,1,3.2,9.1c0,5.8-1.5,6.4-1.5,7.3s2.6,2.6,2.3,4.6c1.5-3.1.6-8,1.4-8.6,2.6,7-4.2,16.9-4.2,21.4,0,14.9,8.8,13.8,8.8,23.5a5.4,5.4,0,0,1-.8,2.7c-.9,0,.4-3.3-1.3-3.3-2.8,3.7-2.3,15.5-3.5,19.9a9.49,9.49,0,0,1-2.4,0c-1.2-.8-2.7-2-3.5-2.6-.8.8,2,2.7,1.5,2.7-.2,0-2.3-1.6-2.6-1.4a7.52,7.52,0,0,0-3.2,3.2,10.16,10.16,0,0,0-1.4,5.6c.4,0,2.1-5.4,4-6.7h.6l1.6.1h0c.2,0,1,.1,1.8.1l3,.1v.5c-1.4-.4-5.1.3-6,.3a20.62,20.62,0,0,0,1.1,1.8,45.16,45.16,0,0,0,5-.9c-.2,1.2-4.9,1.8-4.9,1.8-4.1,2.4-1.7,11-1.7,11s.5-1.4.7-2.1.3-2.5,1-3.1a3.68,3.68,0,0,0,1.1-2.9c6.1-3.6,5.9-6.6,6.7-6.3,0,2.7-5.8,7.1-5.8,7.1l1.6,1.3a29.87,29.87,0,0,1,3-3.3c.2,0-.4.7-1,1.6a18.82,18.82,0,0,1-1.6,2.3c.3,1.4.3,5.6,2.9,6.8a14.92,14.92,0,0,1-.1-4.5c1-1.8,2-2.3,2.4-3.5.8-1.7,2-3.9,2-3.9a6.27,6.27,0,0,0,2.8,2.5s-.9-2.2.6-3.6-2.7-4.7-2.7-4.7a2.09,2.09,0,0,1,2.4.4c.9,1.1,1.1,2,1.5,2.2s-.1-2,.7-2.7-.4-3.8-2.7-4.2c1.2-1.3,3.1.7,3.9.7.1-.9,1.3-2.3.4-3.4s-2.4-2.6-2.4-2.6c1.7-.8,2.5,1.1,3.6.9,0-1.1,1.1-2.1-.4-3.5a15.88,15.88,0,0,0-2-1.7,6,6,0,0,1,3.3.9c-.4-1.8.1-3.1-.9-4.2a2.61,2.61,0,0,0-1.9-.9c.1-1.6,1.9-.2,2.7-.5-.9-1.2,1.2-3.5.6-5.5-5.5,2.5-6.3-7.5-7.1-8,.2-3.9-2.1-15.4-2.3-18.2-.2-3.1.2-4.5.5-2.3.1.9,1,4,1.4,7.5.6,5,.7,10.7,5,10.7s4.4-4.5,4.4-6.6-2.3-11.4-2.3-12.9c2-1.8,2.5-5.2,2.6-7.8-.4.7-2.8,3.6-2.8,4.4-.9-1.5,2.5-4.4,2.4-6.2a15.89,15.89,0,0,0-.7-3.6c-.1.5-.8,2.5-1.3,4.2-.3,1.1-.3,2.2-.6,2.2-.6,0-.2-2.2.1-3.2.2-.6,1.5-2.9,1.5-5.1,0-7-1.5-4.8-.4-8.9-1.7,2.5-3.1,7.8-3.1,13.3-.3-.7-.5.8-.7.1a33.73,33.73,0,0,1-.9-8.2c0-2.4,4-10.1,4-16.2s-4.7-8.7-5-11.1a3.75,3.75,0,0,1,1.8-3.5A3.66,3.66,0,0,0,117,63c1-2.8,4.9-4.1,4.8.8,1.3-1.2,1.4-6.5-3.9-6.5-4.2,0-5.1,4.9-5.1,6.9,0,5.5,4.9,11.6,4.9,14.7,0,3.7-2,6.8-1.9,7.9-.1-1.8,1.2-6.8,1.2-8.3-.9.9-1.5,4.9-1.9,5.7a38.67,38.67,0,0,1,1.1-8.1c-.8,1.3-2.3,5.5-2.2,6.6-.1-.9,1.1-6.7,1.2-8.5a39.17,39.17,0,0,0-2.1,13.4c0,9.5,8,23.8,8,33.5,0,3.1-1.4,4-2.1,4-6,0-10.3-47.9-10.3-47.9-3.2-2.6-7.2-9.2-7.2-9.2l-.7-.2A25.25,25.25,0,0,1,96,74c-1.3,1.1-3.7,2.2-5.2,3.2a9.39,9.39,0,0,0-2.3,1.9l-1.2-.4a33.9,33.9,0,0,1,3.1-2.9c1.1-.8,2-3,2-4.9s-.7-4.7-.7-6.7c0-2.6,1.2-4.7.7-4.9-1.5-.5-3.6-1.3-4.8-1.8-.8,2-2.2,1.8-2.9,3.2-.9,1.9-1,4.4-1,6.8,0,3.5,1.5,4.6,2.1,4.6.3-.8.6-3.3,1.5-5.7.8-2.1,2.2-3.6,2.4-4.2.4.7-1.1,2.4-1.7,5.8-.7,4.7-4.8,13.9-5.9,18C80.8,89.8,78.6,98.3,77.9,99.8Zm13.6,46.9c4.7,0,5.2-2,5.7-2a.68.68,0,0,1,.7.7c0,.3-1.4.8-1.5,1.5,3.6.7,4.9-.9,6.3-.9,0-1.5-2.1-2.1-2.1-3.3a4,4,0,0,1,1.8-3.1c0-5.7-4.2-2.4-4.2-14.4,0-4.7.7-8.7,1.6-9.2-3.1.4-2.2,10.6-2.2,10.6s-.2,1-.7.9.1-1.1-.9-1.1.3-1,.8-.8.1-1.3-.4-1.3c-.8,0-1.1-1.2,0-1.2.9,0,.5-.9.1-1.2s-1.5-.7-.1-1.2c0,0,.4-.7-.2-.9s-.1-.7-.1-1.5c.7.4,1.3.4,1.2-.7-.1-1.8,4.3-4.9,5.6-3.5.7-.7-.1-1.1-.1-2.1a11.94,11.94,0,0,1,.7-2.9c.9,0-.5,2.9.5,2.9.1-1,.9-2.9.4-3.6s-.3-1-.9-2.3a2.65,2.65,0,0,0-1.5-1.4c-1.2.4-4.9,1.7-10.1-1.5,0,0-.6-.2-.9.9-.5,1.5-.8,5.3-.8,12.9,0,11.8,4.6,17.6,4.6,18.5s-2-1.2-3.8-1.2c-5,0-8.1-.1-11.4-5.2l-1.2.2,2.9,3.2c-1.1,0-3.4-2.7-3.4-2.7s-5.2,2.8-5.2,4.5.6-.7,2-.6c1.7.1,3.6-1.7,4.2-1.4a7.94,7.94,0,0,0,2.7,2c2.8,1.1,7.4,2,6.8,2.2-1.7.4-10.2-1.8-11.2-2.1l-2.6,1.4c.7.2,6.1,1.6,5.7,1.7-1.7.3-6.2-1.3-6.4-1,0,5.2,1,6.9,1,6.9.4-2.6.6-4.7,1.3-4.6,1.8.2,5.7.3,5.7,1.7,0,1.2-3.9,1.3-3.8,2.3,1,.1,4.3.7,5,.3s2.3-1,2.3-.4c0,1.2-2.5,1.2-2.5,1.2a4.52,4.52,0,0,0,2.9.9c1.9,0,2-1,2-1,2.9,0-.9,1.4-1.1,1.7.9.1,3.9.5,4.4.1s2-1.3,2.3-.9S92,146.1,91.5,146.7Zm-8.8-18.5c-1.1.7-1.7-1-3.5-.2,1.8.5,2.4,1.8,3.5,2.4-.3-1.2,1.1-2.5,1.1-2.5s-.6-2.4-4.4-1.2C81.2,126.9,82.4,126.2,82.7,128.2Zm-8.8,3c2.4-2.9,4.6-3.2,4.6-3.2-.1-.2-.1-1.1-1.6-.5C75.8,128,74.9,128.9,73.9,131.2Zm6.9-20.9c-.4-.9-.8-1.7-1.6-1.7a2.77,2.77,0,0,0-1,.1c1,1.5,2.6,3.5,2.6,3.5a21.65,21.65,0,0,1,3.4.6C82.8,111.9,81.2,111.2,80.8,110.3ZM74.9,97l-1.3-1a7.61,7.61,0,0,0,.4,4.9C74.2,98,73.9,97.9,74.9,97Zm0,11.6a4.25,4.25,0,0,1-1.2-.5,13,13,0,0,0,2.9,7.2C74.8,111.3,74.9,110,74.9,108.6Z"/></svg>